<svg id="Ñëîé_1" data-name="Ñëîé 1" xmlns="http://www.w3.org/2000/svg" xmlns:xlink="http://www.w3.org/1999/xlink" viewBox="0 0 536 404"><defs><style>.cls-1{fill:#394555;}.cls-2,.cls-6{fill:#009ab1;}.cls-3{fill:#06b3c6;}.cls-4{fill:url(#Áåçûìÿííûé_ãðàäèåíò_3);}.cls-5{fill:#043c5e;}.cls-31,.cls-6{opacity:0.37;}.cls-7{fill:url(#Áåçûìÿííûé_ãðàäèåíò_3-2);}.cls-8{fill:#dcdddf;}.cls-9{fill:url(#Áåçûìÿííûé_ãðàäèåíò_3-3);}.cls-10{fill:#e26530;}.cls-11{fill:#ee7330;}.cls-12{fill:#11375b;}.cls-13{fill:#fff;}.cls-14{fill:#f8b68f;}.cls-15{fill:#f4a086;}.cls-16{fill:#00666a;}.cls-17{fill:url(#Áåçûìÿííûé_ãðàäèåíò_2);}.cls-18{fill:#b0d9c8;}.cls-19{fill:url(#Áåçûìÿííûé_ãðàäèåíò_2-2);}.cls-20{fill:#63c1c5;}.cls-21{fill:#0e4554;}.cls-22{fill:#051d28;}.cls-23{fill:url(#Áåçûìÿííûé_ãðàäèåíò_3-4);}.cls-24{fill:url(#Áåçûìÿííûé_ãðàäèåíò_3-5);}.cls-25{fill:#f59c42;}.cls-26{fill:#e8375e;}.cls-27{fill:#ec660b;}.cls-28{fill:url(#Áåçûìÿííûé_ãðàäèåíò_3-6);}.cls-29{fill:url(#Áåçûìÿííûé_ãðàäèåíò_2-3);}.cls-30{fill:url(#Áåçûìÿííûé_ãðàäèåíò_2-4);}</style><linearGradient id="Áåçûìÿííûé_ãðàäèåíò_3" x1="105.71" y1="237.95" x2="189.89" y2="237.95" gradientUnits="userSpaceOnUse"><stop offset="0" stop-color="#e0f0eb"/><stop offset="1" stop-color="#c0e4ef"/></linearGradient><linearGradient id="Áåçûìÿííûé_ãðàäèåíò_3-2" x1="399.61" y1="160.16" x2="485.92" y2="160.16" xlink:href="#Áåçûìÿííûé_ãðàäèåíò_3"/><linearGradient id="Áåçûìÿííûé_ãðàäèåíò_3-3" x1="416.76" y1="161.42" x2="469.3" y2="161.42" xlink:href="#Áåçûìÿííûé_ãðàäèåíò_3"/><linearGradient id="Áåçûìÿííûé_ãðàäèåíò_2" x1="256.33" y1="58.63" x2="292.43" y2="58.63" gradientUnits="userSpaceOnUse"><stop offset="0" stop-color="#f1f8f8"/><stop offset="1" stop-color="#c0e4ef"/></linearGradient><linearGradient id="Áåçûìÿííûé_ãðàäèåíò_2-2" x1="248.95" y1="59.61" x2="292.2" y2="59.61" xlink:href="#Áåçûìÿííûé_ãðàäèåíò_2"/><linearGradient id="Áåçûìÿííûé_ãðàäèåíò_3-4" x1="70.18" y1="307.85" x2="70.58" y2="307.85" xlink:href="#Áåçûìÿííûé_ãðàäèåíò_3"/><linearGradient id="Áåçûìÿííûé_ãðàäèåíò_3-5" x1="58.42" y1="308.72" x2="63.8" y2="308.72" xlink:href="#Áåçûìÿííûé_ãðàäèåíò_3"/><linearGradient id="Áåçûìÿííûé_ãðàäèåíò_3-6" x1="330.64" y1="177.61" x2="335.18" y2="177.61" xlink:href="#Áåçûìÿííûé_ãðàäèåíò_3"/><linearGradient id="Áåçûìÿííûé_ãðàäèåíò_2-3" x1="140.66" y1="140.35" x2="169.86" y2="140.35" gradientTransform="matrix(-1, 0, 0, 1, 208.25, 0)" xlink:href="#Áåçûìÿííûé_ãðàäèåíò_2"/><linearGradient id="Áåçûìÿííûé_ãðàäèåíò_2-4" x1="140.66" y1="149.18" x2="164.21" y2="149.18" gradientTransform="matrix(-1, 0, 0, 1, 208.25, 0)" xlink:href="#Áåçûìÿííûé_ãðàäèåíò_2"/></defs><rect class="cls-1" x="168.54" y="198.41" width="48.46" height="106.35"/><rect class="cls-2" x="237.45" y="152.85" width="48.46" height="123.15"/><rect class="cls-3" x="305.8" y="92.09" width="52.33" height="171.91"/><path class="cls-4" d="M170.5,289.88s39.61-66.09,5.6-111.15c-93.39,26.66-66.92,118.44-66.92,118.44Z"/><path class="cls-5" d="M176.1,178.73l-1,.28-25.73,87.06L119,218.3c-.34.54-.66,1.07-1,1.61l30.73,48.31-7.42,25.12,1.82-.21L158,243.05h0l31.33-9.75q.1-.92.18-1.83l-30.94,9.63,18.18-61.51c-.21-.28-.41-.57-.63-.86Z"/><path class="cls-2" d="M150.24,248.45c-6.83-24-22.67-62-56.38-74.71C44.14,215.63,82.44,278.18,82.44,278.18l54.4,39.44,12-32.57A59.11,59.11,0,0,0,150.24,248.45Z"/><path class="cls-3" d="M137.07,215.32l-22,26L95.05,174.21l-1.19-.47-.57.5,10.74,36L75.28,197l-.38.81-.33.72,30.11,13.87,17.9,59.93-51.2-21.63c.18.7.36,1.39.55,2.07l51.28,21.66L135.92,317l.92.67.58-1.57L115.69,243.3l22.24-26.37C137.65,216.39,137.36,215.85,137.07,215.32Z"/><path class="cls-1" d="M99.16,357.9c8.83-9.58,21.9-14.62,33.74-19.35a19.06,19.06,0,0,1,2.1-.69l-5.33-42.09S85.83,249,45.87,265c-8.55,49.15,22.87,78.55,51.67,94.8C98,359.18,98.58,358.53,99.16,357.9Z"/><path class="cls-2" d="M127.39,340.77l1.73-.71L87.36,301.84,85.58,266c-.58-.22-1.15-.42-1.73-.62l1.73,34.89L46.76,264.7l-.88.33h0c0,.33-.1.66-.16,1l64.08,58.63L63.08,332c.42.51.85,1,1.28,1.51l47-7.38Z"/><path class="cls-6" d="M273.35,123.94h138.5s7.52-9.51,0-15.9c-4.14-3.53-9-3.16-12.59-2.13a4.14,4.14,0,0,1-5.14-3.24c-.84-3.91-3.43-9-10.89-12s-12,1.57-14.66,6.23a2.08,2.08,0,0,1-3.76-.39c-2.33-7.36-10.43-17.11-37.05-17.11-33.87,0-30.1,18-27.08,25.48a1.72,1.72,0,0,1-1.95,2.35c-5.23-1.12-14.92-2.56-19.27.85C273.35,112.83,273.35,123.94,273.35,123.94Z"/><ellipse class="cls-2" cx="442.77" cy="158.47" rx="61.57" ry="108.17"/><path class="cls-5" d="M442.77,50.29c-34,0-61.58,48.43-61.58,108.18s27.57,108.17,61.58,108.17,61.57-48.43,61.57-108.17S476.77,50.29,442.77,50.29Zm.14,194.07c-26.38,0-47.77-37.58-47.77-83.94s21.39-83.94,47.77-83.94,47.78,37.58,47.78,83.94S469.3,244.36,442.91,244.36Z"/><path class="cls-7" d="M442.77,84.35c-23.84,0-43.16,33.94-43.16,75.81S418.93,236,442.77,236s43.15-33.95,43.15-75.82S466.6,84.35,442.77,84.35Zm.1,136c-18.49,0-33.49-26.34-33.49-58.83s15-58.83,33.49-58.83,33.49,26.34,33.49,58.83S461.37,220.36,442.87,220.36Z"/><path class="cls-8" d="M443.09,114.1c-15,0-27.08,21.29-27.08,47.56s12.12,47.57,27.08,47.57,27.07-21.3,27.07-47.57S458,114.1,443.09,114.1Zm.06,85.33c-11.6,0-21-16.52-21-36.91s9.41-36.91,21-36.91,21,16.53,21,36.91S454.76,199.43,443.15,199.43Z"/><path class="cls-9" d="M469.3,161.42c0,25.48-11.76,46.14-26.27,46.14s-26.27-20.66-26.27-46.14,11.76-46.14,26.27-46.14S469.3,135.93,469.3,161.42Z"/><path class="cls-2" d="M452.53,162.12c0,9.47-4.37,17.14-9.76,17.14S433,171.59,433,162.12,437.38,145,442.77,145,452.53,152.65,452.53,162.12Z"/><path class="cls-5" d="M447.92,162.12c0,5-2.31,9-5.15,9s-5.15-4.06-5.15-9,2.3-9.05,5.15-9.05S447.92,157.12,447.92,162.12Z"/><path class="cls-10" d="M440.77,164l-18.51,3.67,9.23,9.26C320.91,262.79,183.62,287,119.93,293.71a67.79,67.79,0,0,0-3.67,5.77c-.16.37-1.19,2.38-1.39,2.83-.35.77-.69,1.56-1,2.35a18.64,18.64,0,0,1,4.25,3.5c6,6.64,4.79,18.53-2.26,23.94a56.91,56.91,0,0,1-8.77,5.61l.68.36,1.25.7.58.28c.51.24,1,.46,1.54.68,1.2.5,2.44.87,3.66,1.33l-22,2.51a18.36,18.36,0,0,1-12.35,8A48.93,48.93,0,0,1,81,362.11c94-3.61,277.93-44.74,353.89-181.8l8.83,8.87Z"/><path class="cls-11" d="M441,163.24l-21.53,1.4,9.1,9.38C277.9,288,115,293.17,115,293.17L80,353s260-15.34,351.94-175.51l8.71,9Z"/><path class="cls-12" d="M153.5,314.79h6.28c.83.09,1.76.33,1.92,1.05a4.15,4.15,0,0,1,.09,1c-.22.26-8.55,0-8.55,0l0,0A1.31,1.31,0,0,1,153.5,314.79Z"/><polygon class="cls-1" points="161.79 316.79 153.24 316.75 153.32 317.08 161.8 317.08 161.79 316.79"/><polygon class="cls-13" points="155.99 314.78 156.55 314.79 156.37 315.56 155.83 315.56 155.99 314.78"/><polygon class="cls-13" points="157.2 314.78 157.76 314.79 157.59 315.56 157.04 315.56 157.2 314.78"/><path class="cls-14" d="M153.07,312.7l.43,2.09h0a2,2,0,0,0,1.68,0l.1,0,.3-2.09Z"/><path class="cls-1" d="M138.82,314.79h6.28c.84.09,1.77.33,1.92,1.05a4.51,4.51,0,0,1,.1,1c-.23.26-8.55,0-8.55,0l0,0A1.32,1.32,0,0,1,138.82,314.79Z"/><polygon class="cls-1" points="147.12 316.79 138.57 316.75 138.64 317.08 147.13 317.08 147.12 316.79"/><polygon class="cls-13" points="141.31 314.78 141.88 314.79 141.7 315.56 141.15 315.56 141.31 314.78"/><polygon class="cls-13" points="142.52 314.78 143.09 314.79 142.91 315.56 142.36 315.56 142.52 314.78"/><path class="cls-14" d="M139.1,312.7l-.28,2.09h0a2,2,0,0,0,1.69,0l.09,0,1-2.09Z"/><path class="cls-14" d="M148.47,242.37l-5.17,3.37,1.59,4.09a1.19,1.19,0,0,1,.08.16h.45a4,4,0,0,1,3.3,2,7,7,0,0,0,2.44-.64,2.48,2.48,0,0,0,1.15-.87C152.86,247.58,148.47,242.37,148.47,242.37Z"/><path class="cls-14" d="M155,243.43s.64,6-.64,9.82c.59.51,2.77,2.84,3.45-.18s-.77-10.7-.77-10.7Z"/><polygon class="cls-1" points="151.94 243 150.72 243.78 151.16 244.69 152.47 244.12 151.94 243"/><path class="cls-1" d="M151.23,244.09c.12.28.13.55,0,.59s-.3-.13-.42-.41-.13-.54,0-.59S151.1,243.82,151.23,244.09Z"/><path class="cls-5" d="M166.62,238.57v0a12.57,12.57,0,0,0-1.18-2.11,10.41,10.41,0,0,1-1.13-1.85l-12.56,8.22.81,1.54,14.05-5.19A5.61,5.61,0,0,1,166.62,238.57Z"/><polygon class="cls-15" points="147.33 251.98 146.87 254.8 150.87 254.8 151.16 251.34 147.33 251.98"/><path class="cls-14" d="M157.65,259s4.72-1.5,6.2-3.52-1-13.09-1-13.09l.32-2a1.86,1.86,0,0,0-1.81-2.15h-1.26a.72.72,0,0,0-.67,1l1.66,3.73s1.24,8.38-.5,9a19.73,19.73,0,0,1-4.43.92Z"/><path class="cls-1" d="M148.78,252l-1.22-2.69.79-.5a1.48,1.48,0,0,0,.62-1.74l-.87-2.53s2.47-.31,2.39-2.6c0-1.18-1.62-1.18-1.62-1.18a2.39,2.39,0,0,1-2,1.18,3.9,3.9,0,0,0-3.62,2.24c-.8,1.41-.45,3.61.25,5.27a4.8,4.8,0,0,0,3.83,2.55Z"/><path class="cls-16" d="M144,274.61a89,89,0,0,0,1.49,12,10.6,10.6,0,0,1-.37,5.5c-2.82,8.38-6.77,21-6.77,21h3.52s8-14.88,10-22.27,2.4-9.73,2.4-9.73l-2.44-6.44Z"/><path class="cls-14" d="M146.91,248a1.16,1.16,0,0,0,.65,1.26c.51.26,1,.14,1.18-.29a1.14,1.14,0,0,0-.65-1.25C147.58,247.48,147.06,247.61,146.91,248Z"/><path class="cls-5" d="M155.44,274.61H144V259.9a6.24,6.24,0,0,1,5.66-6.21l8-1s.94,1.44,3.55,4.77a26.84,26.84,0,0,1-6.77,2.83Z"/><path class="cls-2" d="M144,274.61s1.62,5.86,7.59,12.43a7.64,7.64,0,0,1,2.23,6l-1.23,20h3.57s4.34-16.64,3.41-24.85a37.6,37.6,0,0,0-4.11-13.59Z"/><path class="cls-13" d="M164.7,237.21c.61,1.28,1.45,2.15,1.87,1.95s.25-1.39-.37-2.67-1.45-2.16-1.87-2S164.08,235.93,164.7,237.21Z"/><path class="cls-14" d="M154.55,241l.1.05a1.61,1.61,0,0,0,1.2.07l.07,0a2.15,2.15,0,0,0,1.36-1.38h0a.4.4,0,0,0-.46-.51l-.79.17a1.22,1.22,0,0,0-.76.51Z"/><polygon class="cls-17" points="292.43 64.85 273.39 54.35 263.67 52.4 256.33 53.48 292.43 64.85"/><polyline class="cls-18" points="292.43 64.85 256.78 55.69 256.33 53.48"/><polygon class="cls-2" points="255.76 61.81 255.81 61.88 257.3 67.42 292.34 64.86 255.76 61.81"/><polygon class="cls-19" points="248.95 58.56 254.04 54.43 292.2 64.79 259.35 63.82 248.95 58.56"/><path class="cls-20" d="M168.76,129.2a26.54,26.54,0,0,0,3.43-1.49.53.53,0,0,1,.7.22.52.52,0,0,1-.23.7,28,28,0,0,1-3.56,1.55l-1.32.43a.53.53,0,0,1-.46-.08.58.58,0,0,1-.19-.27.52.52,0,0,1,.35-.64C167.91,129.49,168.33,129.35,168.76,129.2Z"/><path class="cls-20" d="M238.53,54.7c1.62.21,3.3.48,5.15.82a.51.51,0,0,1,.41.6.51.51,0,0,1-.6.41c-1.83-.33-3.49-.6-5.09-.8a.51.51,0,0,1-.24-.1.55.55,0,0,1-.21-.48A.53.53,0,0,1,238.53,54.7Z"/><path class="cls-20" d="M229.9,55.1a.49.49,0,0,1-.21-.41.52.52,0,0,1,.51-.53c1.66,0,3.42.06,5.22.21a.5.5,0,0,1,.47.56.51.51,0,0,1-.56.47c-1.77-.15-3.49-.21-5.12-.2A.52.52,0,0,1,229.9,55.1Z"/><path class="cls-20" d="M178.75,123a.51.51,0,0,1,.73,0,.52.52,0,0,1,0,.74,29.58,29.58,0,0,1-4.08,3.32.53.53,0,0,1-.6,0,.3.3,0,0,1-.12-.13.51.51,0,0,1,.14-.71A28.19,28.19,0,0,0,178.75,123Z"/><path class="cls-20" d="M180.89,121.44a.52.52,0,0,1-.08-.73c.3-.36.58-.72.86-1.09a29.35,29.35,0,0,0,2-3.12.51.51,0,0,1,.7-.2.53.53,0,0,1,.21.7,29,29,0,0,1-2.07,3.23c-.29.39-.58.77-.88,1.14a.52.52,0,0,1-.71.08Z"/><path class="cls-20" d="M185.25,114.43a.41.41,0,0,1-.11-.07.5.5,0,0,1-.17-.61,35.39,35.39,0,0,0,1.57-4.85.52.52,0,1,1,1,.25,35.61,35.61,0,0,1-1.63,5A.52.52,0,0,1,185.25,114.43Z"/><path class="cls-20" d="M199,70.23c-.43.53-.85,1.06-1.25,1.61-.61.82-1.2,1.68-1.74,2.54a.52.52,0,0,1-.71.16l0,0a.51.51,0,0,1-.13-.69c.55-.89,1.15-1.76,1.77-2.61q.63-.84,1.29-1.65a.49.49,0,0,1,.73-.07A.52.52,0,0,1,199,70.23Z"/><path class="cls-20" d="M194.47,77a35.82,35.82,0,0,0-2.06,4.67.51.51,0,0,1-.66.31l-.13-.07a.51.51,0,0,1-.18-.59,36.43,36.43,0,0,1,2.11-4.8.51.51,0,0,1,.7-.22A.52.52,0,0,1,194.47,77Z"/><path class="cls-20" d="M204.77,64.45A44.25,44.25,0,0,0,201,67.93a.53.53,0,0,1-.69.06l-.05,0a.52.52,0,0,1,0-.73,41.92,41.92,0,0,1,3.84-3.57.52.52,0,1,1,.66.8Z"/><path class="cls-20" d="M214.31,58.56a.49.49,0,0,1-.51-.06.55.55,0,0,1-.17-.2.52.52,0,0,1,.27-.69,40.37,40.37,0,0,1,4.92-1.81.52.52,0,0,1,.29,1A40.74,40.74,0,0,0,214.31,58.56Z"/><path class="cls-20" d="M188.79,98.3a.55.55,0,0,1-.25-.1.54.54,0,0,1-.2-.48l.07-.65c.17-1.5.34-3,.54-4.5a.53.53,0,0,1,.58-.45.52.52,0,0,1,.45.59c-.2,1.49-.37,3-.54,4.48l-.07.65A.53.53,0,0,1,188.79,98.3Z"/><path class="cls-20" d="M207.21,62.59a.51.51,0,0,1-.61,0l-.12-.12a.52.52,0,0,1,.13-.72A42.85,42.85,0,0,1,211.07,59a.52.52,0,0,1,.7.22.52.52,0,0,1-.21.7A41.29,41.29,0,0,0,207.21,62.59Z"/><path class="cls-20" d="M188.55,100.35a.52.52,0,0,1,.45.58c-.26,2-.51,3.66-.79,5.16a.51.51,0,0,1-.6.41.67.67,0,0,1-.21-.09.54.54,0,0,1-.21-.52c.28-1.47.53-3.09.78-5.09A.53.53,0,0,1,188.55,100.35Z"/><path class="cls-20" d="M164.51,130.35a.51.51,0,0,1,.61.4.52.52,0,0,1-.41.61,40.93,40.93,0,0,1-5.19.67.53.53,0,0,1-.35-.1.56.56,0,0,1-.21-.38.52.52,0,0,1,.49-.55A43,43,0,0,0,164.51,130.35Z"/><path class="cls-20" d="M191.13,84a.51.51,0,0,1,.37.63c-.41,1.53-.76,3.17-1.07,5a.5.5,0,0,1-.59.42.46.46,0,0,1-.23-.09.52.52,0,0,1-.2-.5c.32-1.89.67-3.56,1.09-5.11A.52.52,0,0,1,191.13,84Z"/><path class="cls-20" d="M225.24,54.47l1.82-.18a.53.53,0,0,1,.56.48.52.52,0,0,1-.48.56c-.59,0-1.18.1-1.77.17-1.1.13-2.2.31-3.29.54a.49.49,0,0,1-.41-.09.51.51,0,0,1,.2-.92C223,54.79,224.12,54.61,225.24,54.47Z"/><path class="cls-14" d="M207.62,222.59c.44.23.89.45,1.36.66l-.09,0-4.24,9,1.73,2.5-3.76.48s-1.57-1.9-1.3-2.91,6.24-9.58,6.24-9.58Z"/><path class="cls-20" d="M217.49,244.87c-3.21-.53-9.27-2-10-2.07-2.29-2.25-5.41-8.37-5.41-8.37l4.33.3,7.47,7.53s2.1,1.2,4.16,2.71Z"/><path class="cls-14" d="M207.25,223l-.25-2a.5.5,0,0,1,.19-.47l.34-.26a.49.49,0,0,1,.37-.1l2,.24a.52.52,0,0,1,.45.45l0,.25a.54.54,0,0,1-.11.37l-1.54,2Z"/><path class="cls-14" d="M208.74,223.43l1.43-1.11a.49.49,0,0,0,0-.77l-.61-.5c-.16-.13-1.21.29-1.21.29s.08.82,1,.34c0,.14.23.32.23.32a2.24,2.24,0,0,0-1.93,1.09Z"/><path class="cls-14" d="M221.13,222.16q-.66.36-1.35.66l.09,0,4.23,9-1.73,2.5,3.76.48s1.57-1.9,1.3-2.91-6.24-9.57-6.24-9.57Z"/><path class="cls-20" d="M211.26,244.44c3.22-.53,9.27-2,10-2.07,2.29-2.25,5.41-8.36,5.41-8.36l-4.33.29-7.47,7.54a46.91,46.91,0,0,0-4.16,2.71Z"/><path class="cls-14" d="M221.5,222.53l.26-2a.51.51,0,0,0-.2-.46l-.34-.26a.46.46,0,0,0-.37-.11l-2,.24a.53.53,0,0,0-.45.46l0,.25a.56.56,0,0,0,.11.37l1.54,2Z"/><path class="cls-14" d="M220,223l-1.42-1.11a.49.49,0,0,1,0-.77l.61-.5c.16-.13,1.22.29,1.22.29s-.09.83-1,.35a.79.79,0,0,1-.24.31,2.24,2.24,0,0,1,1.93,1.09Z"/><path class="cls-1" d="M194,285.29l1.47,3.89c.12.55.14,1.2-.42,1.52a4.88,4.88,0,0,1-.77.36c-.27-.06-2-5.32-2-5.32l0,0A1.4,1.4,0,0,1,194,285.29Z"/><polygon class="cls-1" points="194.27 291.06 192.3 285.74 192.04 285.89 194.03 291.16 194.27 291.06"/><polygon class="cls-13" points="194.57 286.83 194.7 287.18 194.02 287.31 193.9 286.97 194.57 286.83"/><polygon class="cls-13" points="194.86 287.58 194.99 287.93 194.31 288.06 194.18 287.72 194.86 287.58"/><path class="cls-14" d="M195.62,284.37l-1.63.92h0a1,1,0,0,0,.36,1.06l.05,0,1.81-.46Z"/><path class="cls-21" d="M208.65,259.8a9.36,9.36,0,0,0-2,4.81c-.27,2,.49,5.28.57,7.82a6.54,6.54,0,0,1-2.81,5.58l-8.75,6.36.59,1.56s12-1.8,15.12-7.16,3.89-17.52,3.89-17.52Z"/><path class="cls-2" d="M212,260.81s-1.39,1.67-.55,5.56c.53,2.48,2.86,5.6,4.43,7.75a6.83,6.83,0,0,1,.81,5.36c-1.28,7.13.77,15.85.77,15.85h1.66s2.5-12.77,3.24-21.75a25.74,25.74,0,0,0-2.87-14.15Z"/><path class="cls-20" d="M208.3,249.79a22.93,22.93,0,0,0,.08-3,9.72,9.72,0,0,0-1.45-4.75,5.88,5.88,0,0,1,1-1,34.1,34.1,0,0,1,5.64-2.25,11.77,11.77,0,0,0,2.46,2.92,10.5,10.5,0,0,0,4.6,2.18c0,.55-.06,1.17-.13,1.9-.46,5-.61,14.34-.61,14.34a17.87,17.87,0,0,1-5.93,2.22c-3.57.68-5.78.9-6.24-1.05A55.16,55.16,0,0,0,208.3,249.79Z"/><path class="cls-14" d="M213.08,228.65l2.21,2.19a3.8,3.8,0,0,1,1.05,3.55l-.26,1.17Z"/><path class="cls-1" d="M210.41,227.83c-5.37,0-3.09,10.3-3.09,10.3s1,6.68,3.09,9.36c1.84,2.33,5.48,1.63,7.21.51a6.5,6.5,0,0,1,2.79-1c1.46-.18,3.2-.83,3.2-3.46s-3-4.41-4.92-5.78a6.47,6.47,0,0,1-2.53-3.74C215.54,231.46,214,227.83,210.41,227.83Z"/><path class="cls-12" d="M217.74,297.3h4.44c.59.09,1.24.31,1.35,1a5.23,5.23,0,0,1,.07.9c-.16.25-6,0-6,0l0,0A1.49,1.49,0,0,1,217.74,297.3Z"/><polygon class="cls-5" points="223.6 299.18 217.56 299.15 217.61 299.46 223.61 299.46 223.6 299.18"/><polygon class="cls-13" points="219.5 297.29 219.9 297.3 219.77 298.02 219.38 298.02 219.5 297.29"/><polygon class="cls-13" points="220.35 297.29 220.75 297.3 220.63 298.02 220.24 298.02 220.35 297.29"/><path class="cls-14" d="M217.44,295.33l.3,2h0a1.11,1.11,0,0,0,1.19,0l.07,0,.21-2Z"/><path class="cls-1" d="M69.35,361.93s.57.79,3.29,1.49c.6.15,1.25.25,1.25,1.24H71.2l-2.74-.47v.47H67s-.41-2.42.46-2.73Z"/><path class="cls-14" d="M69.49,360.18l-.14,1.75h0a1.71,1.71,0,0,1-1.82.06l-.1-.06v-1.75Z"/><path class="cls-1" d="M55.57,362.27s.58.8,3.3,1.49c.6.16,1.24.26,1.24,1.25H57.43l-2.75-.48V365H53.2s-.42-2.43.45-2.74Z"/><path class="cls-14" d="M55.71,360.53l-.14,1.74h0a1.67,1.67,0,0,1-1.82.06l-.1-.06v-1.74Z"/><path class="cls-1" d="M70.58,317.37l-.67,43.76H66.72s-4.85-35.33-3.81-43.76S70.58,317.37,70.58,317.37Z"/><path class="cls-22" d="M67.21,317.36s-1.11,13.44-3.66,20.88-7.15,22.89-7.15,22.89H53.1s5.51-32.28,4.25-43.77h9.86Z"/><path class="cls-20" d="M70.08,295.08S74,304.24,75,304.24c.8,0-.3-7.48-.3-7.48H78s4.14,12.83.85,15.17-10.52-6.63-10.52-6.63Z"/><path class="cls-14" d="M58.37,318.52l1.19,2.94c.57,1.16,2.68,1.19,4.08.82a.29.29,0,0,0,.14-.48,40.67,40.67,0,0,0-3.46-3.48Z"/><path class="cls-20" d="M66.83,293.17A3.69,3.69,0,0,1,70,294.92a2.58,2.58,0,0,1,.38,1.26v21.18h-12V297.55s.24-4.4,4.55-4.4Z"/><polygon class="cls-23" points="70.18 317.37 70.18 298.34 70.58 298.36 70.58 317.37 70.18 317.37"/><path class="cls-15" d="M62.43,289.11l1.29,4.83a3,3,0,0,0,2.54.5c1.45-.38,1.17-1.43,1.17-1.43l-.82-3.09H64.32Z"/><path class="cls-14" d="M67,290.78a1.83,1.83,0,0,0,1-.56c.75-2.4-2.19-7.54-2.19-7.54l-4.45,2.08.83,3.75a3.22,3.22,0,0,0,1.85,2.24h0A5.15,5.15,0,0,0,67,290.78Z"/><path class="cls-1" d="M63.62,284.27a10.41,10.41,0,0,0,3.19-.84c1.55-.72,0-2.24,0-2.24a6.63,6.63,0,0,1-3.29,1.12c-1.51.17-2,0-2.77.73-1.08,1-.17,3.21-.17,3.21l2,4.64.26-.07s-.7-2.88-1-3.86c.15-.52.45-.6.71-.54a.73.73,0,0,1,.56.56l1.33,5s3.56.52,4.3.06-.78-4-.78-4a1.54,1.54,0,0,0-1.55.84c-.51,1-1.6.39-1.6.39Z"/><path class="cls-14" d="M77.37,296.76l-.11-.63a5.29,5.29,0,0,0-3-3.6H72.92l.43,3,2,1.24Z"/><path class="cls-14" d="M62.16,286.4a.83.83,0,0,1,1,.56.71.71,0,0,1-.3,1,.83.83,0,0,1-1-.56A.73.73,0,0,1,62.16,286.4Z"/><path class="cls-14" d="M73.93,295.19l2.72,1.57s-1.71,0-1.74,0L72,294.35s.21-.42.86-.06A3.22,3.22,0,0,1,73.93,295.19Z"/><path class="cls-20" d="M59.64,294.48s-6.8,7.55-6.8,12.08,5.52,12.5,5.52,12.5l2.72-.8s-2.46-9.87-2.46-12.5,5.06-6.47,5.06-6.47"/><path class="cls-24" d="M58.82,305.76c0,2.26,2,10.53,2.47,12.46l-.4.1c-.58-2.38-2.47-10.33-2.47-12.56,0-2.69,4.93-6.47,5.13-6.63l.25.31S58.82,303.26,58.82,305.76Z"/><path class="cls-16" d="M72.15,290.67A7.17,7.17,0,0,0,74,295.75a.78.78,0,0,0,.54.22,2.09,2.09,0,0,0,.91-.27.91.91,0,0,0,.52-.48.37.37,0,0,0-.09-.38c-.43-.5-1.79-2.22-1.49-3.93A3,3,0,0,0,72.15,290.67Z"/><path class="cls-2" d="M75.73,295.57a.63.63,0,0,0,.28-.35.37.37,0,0,0-.09-.38c-.43-.5-1.79-2.22-1.49-3.93a2.49,2.49,0,0,0-1.12-.36C73.48,292.37,74,293.53,75.73,295.57Z"/><path class="cls-16" d="M74.05,292.87c.14.4.38.69.53.63s.18-.42,0-.83-.37-.69-.53-.63S73.91,292.46,74.05,292.87Z"/><polygon class="cls-25" points="74.06 292.05 74.22 291.99 74.22 292.08 74.11 292.14 74.06 292.05"/><polygon class="cls-26" points="74.55 293.51 74.75 293.44 74.51 293.44 74.55 293.51"/><path class="cls-20" d="M74.18,292.82c.14.41.38.69.54.64s.18-.43,0-.84-.38-.68-.54-.63S74.05,292.42,74.18,292.82Z"/><path class="cls-16" d="M71.11,288.32l-.32,0a1.1,1.1,0,0,0-1,1.2l.11.84a1.1,1.1,0,0,0,1.24.92l.32,0Z"/><path class="cls-1" d="M81,287.93c.29,2.29,0,4.22-.66,4.3s-1.41-1.71-1.7-4,0-4.22.66-4.3S80.7,285.63,81,287.93Z"/><polygon class="cls-13" points="78.39 286.7 79.4 287.19 79.57 288.53 78.72 289.52 78.16 287.81 78.39 286.7"/><path class="cls-27" d="M78.63,288.22c-.24-1.93-.07-3.59.38-4.12h0a19.12,19.12,0,0,1-8.08,4.28l.37,2.93s6.14-1.12,8.71.83h0C79.45,291.72,78.88,290.15,78.63,288.22Z"/><path class="cls-27" d="M79.61,287.84c0,.37,0,.68,0,.69s-.17-.29-.22-.66,0-.68.05-.69S79.56,287.47,79.61,287.84Z"/><path class="cls-14" d="M75.86,294.59a3.13,3.13,0,0,1-1.52.25c-.79,0-1.15-1-1.28-1.5,0-.19-.09-.45.14-.57l1.27-.18Z"/><path class="cls-14" d="M351.93,163.09l1.71-1.43a.57.57,0,0,0,.19-.52l-.07-.46a.56.56,0,0,0-.23-.36l-1.78-1.3a.56.56,0,0,0-.69,0l-.21.18a.52.52,0,0,0-.19.37l-.27,2.76Z"/><path class="cls-15" d="M350.39,162.36l-.31-2a.53.53,0,0,1,.57-.62l.85.06c.23,0,.76,1.13.76,1.13s-.68.59-1.06-.48a.82.82,0,0,1-.43.08,2.42,2.42,0,0,1,.73,2.3Z"/><path class="cls-16" d="M352.28,163.13s-4,10.84-6.24,14.78-9.17,10.32-9.17,10.32l-3.23-8.76s6.24-3,9.32-6.29,7.24-11.24,7.24-11.24Z"/><path class="cls-14" d="M316,156.72l-1-2a.54.54,0,0,1,0-.55l.25-.39a.58.58,0,0,1,.35-.24l2.15-.48a.56.56,0,0,1,.63.31l.12.24a.61.61,0,0,1,0,.42l-.86,2.64Z"/><path class="cls-14" d="M317.72,156.67l1.06-1.66a.54.54,0,0,0-.27-.8l-.81-.29c-.21-.08-1.15.74-1.15.74s.39.82,1.17,0a.94.94,0,0,0,.36.24,2.4,2.4,0,0,0-1.59,1.82Z"/><path class="cls-1" d="M304.5,226.46a11.37,11.37,0,0,0-2.15,4.67c-.18.72.07,1.49-1.11,1.49v-3.94l.56-3.28h-.56v-1.77s2.89-.5,3.26.54Z"/><path class="cls-14" d="M306.58,226.26l-2.08.2h0a2,2,0,0,1-.07-2.17l.07-.12,2.08-.74Z"/><path class="cls-21" d="M325.1,197.82A41.84,41.84,0,0,0,323.36,213a4.15,4.15,0,0,1-3.41,4.41c-6.4,1.2-13.72,5.9-13.72,5.9v3.27s19.8-1.79,23.93-4.61,6.08-21.24,6.08-21.24Z"/><path class="cls-16" d="M334.43,178c4.49,3,2.44,21.24,2.44,21.24l-13.7-1.63,1.48-13.52s-6.24-7.6-7.43-13.16a127.89,127.89,0,0,1-1.78-14.32H318s2.82,11.43,4.6,14.32,7.73,7,7.73,7Z"/><path class="cls-2" d="M336.75,198.93c.2-2,1.32-14.3-1.1-19.2l.17-.33c2.71,5.09,1.36,18.36,1.21,19.75Z"/><path class="cls-15" d="M331.43,177.71l.6-2.56,2.93.33.22,3-.06.06A8.27,8.27,0,0,0,331.43,177.71Z"/><path class="cls-14" d="M330.42,170.16l.77,4c.4-.07.69.33.67.72a.69.69,0,0,1,.11.28,4.66,4.66,0,0,0,3.72.34c2.5-.85.26-5.58.26-5.58Z"/><path class="cls-1" d="M329.55,173.38a2.51,2.51,0,0,0-.8-1c-1.63-1-.46-2.15,0-2.51s.24-1.31.82-1.91c.9-.93,2-.25,2.61-.46s.91-1.12,1.91-.8,1,1.08,1.34,1.34.78-.66,1.83.19c1.6,1.3-1,2.32-1,2.32a5,5,0,0,1-3.49.32.65.65,0,0,0-.74.3c-.38.71.09,4.08.09,4.08l-.74-.45A1.86,1.86,0,0,1,329.55,173.38Z"/><path class="cls-14" d="M331.14,173.5a.61.61,0,0,0,.85.22.62.62,0,0,0,.23-.85.63.63,0,0,0-.86-.23A.62.62,0,0,0,331.14,173.5Z"/><polygon class="cls-28" points="335.12 177.43 335.18 178.82 330.64 177.91 331.59 176.4 335.12 177.43"/><path class="cls-1" d="M356,229.35a11.46,11.46,0,0,0,4.67,2.15c.72.18,1.49-.06,1.49,1.12h-3.94l-3.28-.57v.57h-1.77s-.49-2.9.54-3.27Z"/><path class="cls-14" d="M355.75,227.27l.2,2.08h0a2,2,0,0,1-2.17.07l-.12-.07-.74-2.08Z"/><path class="cls-22" d="M336.87,199.22s13.42,2,14.31,4.31,4.6,23.9,4.6,23.9H353s-9.4-10.09-8-17c-3.31-.07-2.75.49-9.65-.17-14.12-2.14-12.18-12.69-12.18-12.69Z"/><path class="cls-14" d="M277.87,216.5s-1.11-2.7-3.62-1.52c-2,1-.75,3.28-.75,3.28s5.3,9.84,7.47,9.62,12-6.08,12-6.08l1.17-1.51a2.93,2.93,0,0,0,.31-1.49,1.29,1.29,0,0,0-1.83-1.2l-.94,1.26-.34,1.59s-9.28,4.48-10,3.41S277.87,216.5,277.87,216.5Z"/><path class="cls-2" d="M245.93,254s-.56-1.09-1.5-.93l-2.44.42v.66l1.11,0a.17.17,0,0,1,.13.27l-.6,1.12a8.26,8.26,0,0,0-1,2.09l2,4.87s1.15-.67.44-3.73A4.87,4.87,0,0,1,245.93,254Z"/><path class="cls-14" d="M247.73,255.55l-1.89.63a1.85,1.85,0,0,0-1,.75,7.35,7.35,0,0,0-.85,1.91c-.94-1.13,0-2.89.74-3.9a2.49,2.49,0,0,1,1.45-1l1.54-.37Z"/><path class="cls-21" d="M268.36,231.24s-3.06,4.61-3.73,12.65c-.18,2.16-.75,6.61-2.91,6.65-6.61.09-13.79,2.9-13.79,2.9l.06,2.32s16,.38,20.63-1.73,8.17-18,8.17-18Z"/><path class="cls-22" d="M275.64,233.94s10.83,6.44,11.05,8.85-2.21,24.75-2.21,24.75l-2.26-.33s-4.45-14.36-2.26-21.08c-2.28-.47-3.25-1.72-7.91-3.21-9.4-3.82-4.67-11-4.67-11Z"/><polygon class="cls-15" points="277.01 210.87 276.04 215.77 273.48 211.36 274.78 209.28 277.01 210.87"/><path class="cls-2" d="M282.67,269.09s-1.09.57-.92,1.51.45,2.44.45,2.44h.65l0-1.11a.16.16,0,0,1,.26-.13l1.27.92a1.61,1.61,0,0,0,1,.32h5.1s0-1.64-3-2.08A11,11,0,0,1,282.67,269.09Z"/><path class="cls-14" d="M284.16,267.28l.65,1.89a1.89,1.89,0,0,0,.76,1,7.46,7.46,0,0,0,1.91.83c-1.11,1-2.89,0-3.9-.71a2.41,2.41,0,0,1-1-1.43l-.39-1.54Z"/><path class="cls-16" d="M278.37,224.94c-.08,2.27,4.13,9.45,4.13,9.45s-3.56,3-4.75,3c-1.05-3-1.78-4.51-1.78-4.51S278.44,222.68,278.37,224.94Z"/><path class="cls-14" d="M278.2,211a1.85,1.85,0,0,0,1.1-.28c1.32-2.1-.18-7.76-.18-7.76l-4.78.85-.15,3.8a3.18,3.18,0,0,0,1.19,2.61h0A5.14,5.14,0,0,0,278.2,211Z"/><path class="cls-2" d="M273.48,211.36s4.12,5.93,5.32,8.81a3.2,3.2,0,0,1,.16,1.91c-2,9.32-2.83,16.58-3.11,17.77-5.69-.18-9.91-6.17-9.91-6.17s.86-1.79,1.82-3.89A25.51,25.51,0,0,0,270,221a50.42,50.42,0,0,1,1-7.12Z"/><path class="cls-1" d="M274.18,201s-.38-1.86-1.44-2.37c-1.34-.66-4.36-.47-5.22,4.28s1.51,4.22,1.6,6.13-4.6,2.58-4.9,6.38.8,4.58.8,4.58a35.06,35.06,0,0,0,3.52-1.29c.71-.85.65.93.77.13a2.89,2.89,0,0,1,1.25-2c.93-.64,2.47-1.73,2.74-3.28a7.15,7.15,0,0,0-1.05-4.35,8.36,8.36,0,0,1-1-3.94,10.12,10.12,0,0,1,.28-3.16c.52-1.21,1.22-.48,1.22-.48Z"/><path class="cls-1" d="M279.12,202.94s-1.21-3.1-4.94-1.55a4.33,4.33,0,0,0-1.23.77c-2.62,3.87,1.23,6.23,1.23,6.23l1.51-2.89a3.41,3.41,0,0,0,2.3-.61A4,4,0,0,0,279.12,202.94Z"/><path class="cls-14" d="M274.69,205.35a.83.83,0,0,1,1.11.11.71.71,0,0,1,.14,1,.83.83,0,0,1-1.1-.1A.73.73,0,0,1,274.69,205.35Z"/><path class="cls-27" d="M274.78,201.17l-.26-.3a.57.57,0,0,0-.76-.09l-.83.58a.43.43,0,0,0-.12.58l.14.22Z"/><path class="cls-14" d="M272.59,218.37s2.74-1,1.65-3.57c-.87-2.05-3.24-.87-3.24-.87s-10,4.94-9.9,7.12,4.69,10.67,4.69,10.67l.85,2.79,1.32.67c.82.61,2.26-.8,2-1.79h0l-2.13-1.69s-3.83-9.44-2.73-10.15S272.59,218.37,272.59,218.37Z"/><polygon class="cls-18" points="40.43 143.49 37.15 149.93 44.04 148.36 67.58 140.94 40.43 143.49"/><polygon class="cls-20" points="37.15 149.93 48.85 149.21 45.98 147.75 37.15 149.93"/><polygon class="cls-29" points="40.43 143.49 38.38 137.21 67.58 140.94 40.43 143.49"/><polygon class="cls-30" points="67.58 140.94 44.04 148.36 47.55 157.42 67.58 140.94"/><path class="cls-20" d="M39.74,156.42a.43.43,0,0,1-.17-.13.54.54,0,0,1,0-.77,16.2,16.2,0,0,1,2.32-1.67.54.54,0,0,1,.75.19.56.56,0,0,1-.19.76,13.47,13.47,0,0,0-2.15,1.55A.55.55,0,0,1,39.74,156.42Z"/><path class="cls-20" d="M47.57,216.75l0,0A16.53,16.53,0,0,1,43.22,213a.55.55,0,0,1,.07-.78.56.56,0,0,1,.78.08,15.37,15.37,0,0,0,4,3.49.55.55,0,0,1,.19.76A.55.55,0,0,1,47.57,216.75Zm-6.07-6.37a.52.52,0,0,1-.22-.22,20.11,20.11,0,0,1-2.11-5.28.55.55,0,0,1,1.07-.27,19.56,19.56,0,0,0,2,5,.55.55,0,0,1-.2.75A.58.58,0,0,1,41.5,210.38ZM38.94,202a.54.54,0,0,1-.3-.45l0-.27a26.74,26.74,0,0,1,.28-5.4A.55.55,0,0,1,40,196a25.24,25.24,0,0,0-.27,5.17v.25a.55.55,0,0,1-.51.59A.64.64,0,0,1,38.94,202Zm.94-8.8a.55.55,0,0,1-.28-.63,41.65,41.65,0,0,1,1.83-5.33.55.55,0,0,1,.72-.29.57.57,0,0,1,.3.72,39.46,39.46,0,0,0-1.79,5.18.55.55,0,0,1-.67.39Zm3.19-8.29a.55.55,0,0,1-.24-.73l.18-.36a18,18,0,0,1-2.4-1.34.55.55,0,1,1,.61-.92,17,17,0,0,0,2.29,1.28c.59-1.14,1.24-2.31,2-3.58a.55.55,0,0,1,.95.55c-.71,1.23-1.34,2.36-1.91,3.46a16,16,0,0,0,1.57.51.56.56,0,0,1,.38.68.55.55,0,0,1-.68.38A16.13,16.13,0,0,1,44,184.2c-.07.14-.14.28-.2.42a.56.56,0,0,1-.74.25Zm-5-4.52-.14-.11a14.85,14.85,0,0,1-3.15-4.79.55.55,0,1,1,1-.42,13.56,13.56,0,0,0,.91,1.83,14.25,14.25,0,0,0,2,2.61.55.55,0,0,1-.64.88Zm10.88,5a.55.55,0,0,1,.29-1,16.28,16.28,0,0,0,5.33-.42.55.55,0,1,1,.27,1.07,17.13,17.13,0,0,1-5.69.44A.46.46,0,0,1,49,185.35ZM34.15,172.52a.53.53,0,0,1-.29-.39,17.63,17.63,0,0,1-.06-5.71.55.55,0,0,1,.63-.46.54.54,0,0,1,.46.62,16.89,16.89,0,0,0,0,5.36.55.55,0,0,1-.45.63A.45.45,0,0,1,34.15,172.52ZM57.6,183.75a.62.62,0,0,1-.24-.24.56.56,0,0,1,.24-.74c.41-.21.82-.45,1.2-.69a10.89,10.89,0,0,0,2.81-2.69.55.55,0,1,1,.89.64,11.84,11.84,0,0,1-3.1,3c-.42.27-.85.52-1.3.75A.58.58,0,0,1,57.6,183.75Zm-10.16-6.63,0,0a.55.55,0,0,1-.16-.76,21.21,21.21,0,0,1,3.58-4.42.56.56,0,0,1,.78,0,.55.55,0,0,1,0,.78,20.17,20.17,0,0,0-3.4,4.19A.54.54,0,0,1,47.44,177.12ZM34.89,163.76a.56.56,0,0,1-.27-.67,18.15,18.15,0,0,1,1-2.4A17.85,17.85,0,0,1,37.28,158a.55.55,0,0,1,.88.66,17.5,17.5,0,0,0-1.55,2.48,17.16,17.16,0,0,0-1,2.26.56.56,0,0,1-.7.35Zm28.35,13.45a.55.55,0,0,1-.28-.63,4.91,4.91,0,0,0-.36-3.6,4.51,4.51,0,0,0-.75-1,.55.55,0,1,1,.79-.77,5.57,5.57,0,0,1,.93,1.29,6.11,6.11,0,0,1,.46,4.39.56.56,0,0,1-.67.4ZM53.68,171a.57.57,0,0,1-.25-.26.56.56,0,0,1,.27-.73,8.92,8.92,0,0,1,5.8-.55.57.57,0,0,1,.4.67.55.55,0,0,1-.67.4,7.91,7.91,0,0,0-5.07.48A.57.57,0,0,1,53.68,171Z"/><path class="cls-20" d="M50.67,218.09a.53.53,0,0,1-.27-.64.55.55,0,0,1,.68-.38,11.91,11.91,0,0,0,2.58.44.55.55,0,0,1,.52.58.56.56,0,0,1-.58.52,13.73,13.73,0,0,1-2.83-.48Z"/><path class="cls-6" d="M410.4,271c-3.36,14.61,31.09,16.49,45.29,16.65a55.41,55.41,0,0,0,11.71-1.12c12-2.43,38.29-8.83,34.61-17.52-4.76-11.22-19-3.4-19-3.4s1.79-8.46-22.52-14.06-24.21,13.05-24.21,13.05S414.62,252.65,410.4,271Z"/><g class="cls-31"><rect class="cls-2" x="198.49" y="133.35" width="7.71" height="7.71" transform="translate(339.55 -65.14) rotate(90)"/><rect class="cls-2" x="209.46" y="133.35" width="7.71" height="7.71" transform="translate(350.52 -76.11) rotate(90)"/><rect class="cls-2" x="220.43" y="133.35" width="7.71" height="7.71" transform="translate(361.49 -87.08) rotate(90)"/><polygon class="cls-2" points="231.4 128.39 231.4 146.02 245.03 137.31 231.4 128.39"/></g><g class="cls-31"><rect class="cls-2" x="116.95" y="152.87" width="7.71" height="7.71" transform="translate(277.52 35.92) rotate(90)"/><rect class="cls-2" x="127.92" y="152.87" width="7.71" height="7.71" transform="translate(288.49 24.95) rotate(90)"/><rect class="cls-2" x="138.89" y="152.87" width="7.71" height="7.71" transform="translate(299.46 13.98) rotate(90)"/><polygon class="cls-2" points="149.86 147.91 149.86 165.53 163.49 156.83 149.86 147.91"/></g><g class="cls-31"><rect class="cls-2" x="334.3" y="144.57" width="6.67" height="6.67" transform="translate(485.54 -189.73) rotate(90)"/><rect class="cls-2" x="343.79" y="144.57" width="6.67" height="6.67" transform="translate(495.04 -199.22) rotate(90)"/><rect class="cls-2" x="353.29" y="144.57" width="6.67" height="6.67" transform="translate(504.53 -208.72) rotate(90)"/><polygon class="cls-2" points="362.78 140.28 362.78 155.54 374.58 148 362.78 140.28"/></g></svg>