<svg xmlns="http://www.w3.org/2000/svg" xmlns:xlink="http://www.w3.org/1999/xlink" viewBox="0 0 800 800"><defs><style>.cls-1{mask:url(#mask);filter:url(#luminosity-noclip-2);}.cls-15,.cls-16,.cls-2,.cls-28,.cls-32,.cls-33,.cls-34,.cls-37,.cls-38,.cls-39{mix-blend-mode:multiply;}.cls-2{fill:url(#linear-gradient);}.cls-3{isolation:isolate;}.cls-4{fill:url(#linear-gradient-2);}.cls-5{fill:#e6e6e6;}.cls-41,.cls-6{fill:#ed732f;}.cls-33,.cls-39,.cls-42,.cls-7{fill:#0099b0;}.cls-20,.cls-8{fill:#fff;}.cls-16,.cls-9{fill:#fe6a3c;}.cls-10{fill:#ea5b34;}.cls-11{fill:none;}.cls-12{fill:#fcd4ca;}.cls-13,.cls-19,.cls-20,.cls-40,.cls-41,.cls-42{fill-rule:evenodd;}.cls-14{fill:#edcac3;}.cls-15{fill:url(#linear-gradient-3);}.cls-17{fill:#040e31;}.cls-18,.cls-34,.cls-40{fill:#015288;}.cls-19,.cls-27,.cls-28{fill:#b3b3b3;}.cls-21{fill:url(#linear-gradient-4);}.cls-22{fill:#096666;}.cls-23{fill:#1ea1af;}.cls-24,.cls-32{fill:#02797d;}.cls-25{fill:#1e1e1e;}.cls-26{fill:#b6ddd3;}.cls-29{fill:#af5223;}.cls-30{fill:url(#linear-gradient-5);}.cls-31{fill:#bbe6dd;}.cls-33,.cls-34,.cls-37{opacity:0.5;}.cls-35{fill:url(#linear-gradient-6);}.cls-36{mask:url(#mask-2);}.cls-37{fill:url(#linear-gradient-7);}.cls-43{filter:url(#luminosity-noclip);}</style><filter id="luminosity-noclip" x="563.85" y="-8592" width="27.16" height="32766" filterUnits="userSpaceOnUse" color-interpolation-filters="sRGB"><feFlood flood-color="#fff" result="bg"/><feBlend in="SourceGraphic" in2="bg"/></filter><mask id="mask" x="563.85" y="-8592" width="27.16" height="32766" maskUnits="userSpaceOnUse"><g class="cls-43"/></mask><linearGradient id="linear-gradient" x1="553.44" y1="394.68" x2="591.01" y2="394.68" gradientUnits="userSpaceOnUse"><stop offset="0"/><stop offset="0.55" stop-color="#fff"/><stop offset="1"/></linearGradient><linearGradient id="linear-gradient-2" x1="38.72" y1="326.9" x2="127.43" y2="326.9" gradientUnits="userSpaceOnUse"><stop offset="0" stop-color="#0099b0"/><stop offset="0.55" stop-color="#0099b0"/></linearGradient><linearGradient id="linear-gradient-3" x1="-17.4" y1="389.67" x2="-9.18" y2="389.67" gradientTransform="translate(390.42 18.93) rotate(15.42)" gradientUnits="userSpaceOnUse"><stop offset="0.42" stop-color="#e6af92"/><stop offset="1" stop-color="#e6a392"/></linearGradient><linearGradient id="linear-gradient-4" x1="617.48" y1="311.02" x2="746.64" y2="311.02" xlink:href="#linear-gradient-2"/><linearGradient id="linear-gradient-5" x1="-327.84" y1="325.04" x2="-327.11" y2="319.4" gradientTransform="translate(376.84 -19.13) rotate(-19.5)" xlink:href="#linear-gradient-3"/><linearGradient id="linear-gradient-6" x1="1022.67" y1="738.37" x2="1023.41" y2="732.62" gradientTransform="matrix(-0.94, -0.33, -0.33, 0.94, 1750.43, -19.13)" xlink:href="#linear-gradient-3"/><filter id="luminosity-noclip-2" x="563.85" y="362.45" width="27.16" height="64.46" filterUnits="userSpaceOnUse" color-interpolation-filters="sRGB"><feFlood flood-color="#fff" result="bg"/><feBlend in="SourceGraphic" in2="bg"/></filter><mask id="mask-2" x="563.85" y="362.45" width="27.16" height="64.46" maskUnits="userSpaceOnUse"><g class="cls-1"><path class="cls-2" d="M577.71,364.49c-11.61-6.37-13.49,3-13.86,16.86v45.56c5.33-1.9,9-4.73,8.55-8.5-1.33-10.93.1-27.11,1.69-39.67,5.37,9.26,10.29,18.79,13.52,28.66C592.41,422,594.41,373.65,577.71,364.49Z"/></g></mask><linearGradient id="linear-gradient-7" x1="553.44" y1="394.68" x2="591.01" y2="394.68" gradientUnits="userSpaceOnUse"><stop offset="0" stop-color="#fff"/><stop offset="0.55" stop-color="#9ce6dd"/><stop offset="1" stop-color="#fff"/></linearGradient></defs><g class="cls-3"><g id="Layer_1" data-name="Layer 1"><path class="cls-4" d="M38.8,342.37c-1.16-11.56,10.49-16.08,13.52-9.05-1-11,4.52-25.5,13.92-26.75,17.76-2.7,12.61,18.74,21.15,19.05,7.8-.23,2-18.55,19.72-9.37,4.25,2.05,6.4,9.76,9.4,19.29,6.08-10.86,9.8-3.79,10.92,6.83A195.08,195.08,0,0,1,38.8,342.37Z"/><rect class="cls-5" x="303.64" y="235.59" width="289" height="215.8"/><rect class="cls-6" x="303.64" y="235.47" width="289" height="25.86"/><rect class="cls-7" x="323.32" y="280.24" width="249.64" height="129.15"/><path class="cls-8" d="M491.11,340.5a43,43,0,1,1-43-43A43,43,0,0,1,491.11,340.5Z"/><polygon class="cls-9" points="473.96 340.5 436.05 318.59 436.05 362.41 473.96 340.5 436.05 318.59 436.05 362.41 473.96 340.5"/><path class="cls-8" d="M335.81,248.4a3.38,3.38,0,1,0,3.38-3.38A3.39,3.39,0,0,0,335.81,248.4Z"/><path class="cls-7" d="M322.64,248.4A3.38,3.38,0,1,0,326,245,3.39,3.39,0,0,0,322.64,248.4Z"/><path class="cls-9" d="M349,248.4a3.38,3.38,0,1,0,3.38-3.38A3.39,3.39,0,0,0,349,248.4Z"/><rect class="cls-8" x="367.98" y="247.84" width="205.67" height="1.12"/><polygon class="cls-9" points="340.39 428.39 324.37 419.14 324.37 437.65 340.39 428.39 324.37 419.14 324.37 437.65 340.39 428.39"/><rect class="cls-8" x="389.84" y="427.83" width="182.07" height="1.12"/><rect class="cls-8" x="355.55" y="421.09" width="3.4" height="14.61"/><rect class="cls-8" x="362.29" y="421.09" width="3.4" height="14.61"/><path class="cls-6" d="M430.3,428.39a5.62,5.62,0,1,1-5.62-5.62A5.61,5.61,0,0,1,430.3,428.39Z"/><path class="cls-7" d="M255.49,420.83c-14.45-1.34-21.12,3.53-21.12,3.53l2.24,24,18.88.24Z"/><path class="cls-10" d="M289.84,480.11c-2.52,4.28-4.83,7.52-9.44,7.52h0a8.33,8.33,0,0,1-8.33-8.33V463.72c0-4.61-9.68-11.6-5.08-11.6l3.27-3.63c4.6,0,2.65,11.25,10.26,21Z"/><path class="cls-11" d="M287.83,486a12.07,12.07,0,0,0,2.26-.14C288.36,485.67,287.31,485.65,287.83,486Z"/><path class="cls-12" d="M289.84,480.11a13.9,13.9,0,0,1-1.27.74c-5,2.52-8.28,2.44-9.73,2.81l-1.54.4,1.51,4c4.14-.37,10.78-.14,13.21-.43,3.16-.37,3.46-.77,3.46-.77-.5-.92-3.36-.78-4.91-.93a13.63,13.63,0,0,1-2.74,0c-.52-.33,1.55-1.1,3.28-.93,1.7-.17,5.46,1.6,5.8,1.75a16.28,16.28,0,0,0,4.94.16C303,487,291.66,480.76,289.84,480.11Z"/><path d="M263.2,362.81c-.93,4.65-4.09,35.87-.52,39.37a16.18,16.18,0,0,0-2.89,4.89l0,0c.52-1.78-1,.79,0,0l-.06.18-.05,0c-.54.32-3.39,1.33-1.48.76-.65.19-1.31.38-2,.54s-1.92.24-2.23.24c-1,0-.58,1.53-1.56,1.46.71,0-6.83-3.12-6-10.5,1-8.69,1.22-26.63,2.95-33.65,4.42-17.92,12.23-13.94,17.88-14.69,9.87.56,8.15,11.92,8.91,13.38C279.94,372,264,358.91,263.2,362.81Z"/><path class="cls-13" d="M305.05,603.25c4.17,1.26,3.95-4.08,4.95-7.59,2.91,1.49,4,5.89,7.36,8.79,1.95,1.62,12.7,5.19,15.46,1.38-7.35-3-8.84-3-9.89-4.17-7.55-5.5-9.35-14-13.9-21.35C296.84,583.19,307.66,594.19,305.05,603.25Z"/><path class="cls-14" d="M314.62,494c-3.78-3.95-15-2.33-12.65,7.59.14.6,10.28,75.52,10.28,75.52s0,.21.09.53a33.94,33.94,0,0,1-3,3.06s5.58,12.64,10.5,19c3.2,4.16,6,3.33,6,3.33s-.48-.14-1.72-2.43c-2.26-4.21-3.43-13.89-4.23-18.6,1-16.38,1-63.6-3-83.43C315.83,493.79,316.15,495.64,314.62,494Z"/><path class="cls-12" d="M267.38,387.26c1.73-3.18-3-13.17-2.68-14.26.71-2.25,18.54-9.3,21.35-8.15,1.92.78,9.54-.74-4.39,29.1a4.08,4.08,0,0,1-2.08-1.51c-2-2.77-6,7.95-6.42,15.39-.5,7.74-2.15,31.92-2.53,32.67-.26.5-12.87-6.5-14.76-10.55.84-3.82-11-23-10-26.74C266.3,408.79,267.58,386.58,267.38,387.26Z"/><path class="cls-12" d="M290.47,379.81c0-1.75,2.35-8.77,2-11.28-6.81-3.18-7.68-3.32-10.82,2.19-1.65,2.91-8.25,18.52-8.1,18.67.37.21,7.89,7,10.63,5.93.37-.14,1.14-4.63,2.1-4.73s1.14-.62,1.13-1.37-.18-.6.58-.76.92-.87.32-1.41c-.93-.84,1.4-1.19,2.89-1.82S290.36,383.71,290.47,379.81Z"/><path class="cls-8" d="M287.61,388.56c.18-.19-1.35-.88-3-.81,0,0,2.91,1.66,2.86,1.27S287.3,388.74,287.61,388.56Z"/><path class="cls-15" d="M275.05,398.25l-3.25-14.73s.81,4,1.82,5.48a13.46,13.46,0,0,0,4.16,3.77C276.65,393.6,275.05,398.25,275.05,398.25Z"/><path d="M271.16,354.85c-16.82,13.79-3.81,32.84-3.81,32.84,1-1.82,2.88-7.47,2.48-8.57-.53-1.51-2.15-1.68-1.36-3.58,2.55-6.14,3.2.95,3.2.95.7-2.64,8.21-11.05,10.81-13a7.35,7.35,0,0,1,5.18-1.52C287.21,358.28,278.32,349,271.16,354.85Z"/><path class="cls-9" d="M280.18,450.49c-11.47,26.77,5.53,53.62,1.93,53.62-10,0-33.56,4.51-36.26-13.69,0,0,9.83-32.9-1.08-80.17-1.58-6.86,2.9-11.57,10.35-11.57h0c7.46,0,36.25,24.78,30.77,32.27C285.89,431,276.13,445.06,280.18,450.49Z"/><path class="cls-16" d="M277.41,459.1a48.61,48.61,0,0,1,2.77-8.61c-2.25-3,.95-6.77,4.23-9.52-2.28-1-39.14-33.09-38.31-30.48C251.29,426.63,261.38,441.33,277.41,459.1Z"/><path d="M297.27,362.53c-2.95.67-4.23,2.66-5.14,4.82a42,42,0,0,0-7.91-8.78,27.8,27.8,0,0,1-5.93,3.06c-.52.21-1.05.39-1.59.56-.19,3.11-6,4.68-6.38,7.77,1.34,1.56,8.14,4.83,9.83,6.48,5.61,5.46,11.45,2.62,13.76-4.18.89-2.63,1.38-7.72,3.86-9.84Z"/><path class="cls-17" d="M249.45,462.31c-.8,14-24.81,35.11-3.3,52.44,6.75,1,51.69,8.69,55.73,2.51,10.27-15.74,18-23.84,21-24.49-41.74-4.49-48.85-16.12-46.23-26.65"/><path class="cls-12" d="M311.48,424.74c2.9-3.7,6.08-5,10.31-11.78,1.9-3.06,2.36-2.79,2.36-2.79.56.86-1.13,2.2-1.15,3.21,0,2.42,3.95-1.45,4.78-2.13,2-1.62,3.15-3.17,3.66-2.3s-5.24,4.15-4.11,4.25,1.19.35,1.45,1.51c.06.22.58.39.88.74,1.91,2.24-9.07,6-11.75,8.53-.48.42-6.65,4.34-7.08,4.74C309.87,427.41,312.44,426,311.48,424.74Z"/><path class="cls-12" d="M319.44,422.82c-13.16,14-21.37,23.27-30.06,28.77-4.53,2.86-12.23-1.1-2.11-10.46,0,0,19.82-13.23,29.33-21.17C318.39,418.46,320.6,421.58,319.44,422.82Z"/><path class="cls-9" d="M261.36,409.83c6.46,7.67,12.12,19.84,25.49,29.26,2.5,4.31,3.47,11.62,1.35,12.91-9.84,6-20.9-10.75-25.89-14.91-29.18-24.3-13.9-42.17-1.79-28.62Z"/><path class="cls-18" d="M251.65,534.21c-26.35-.91-37-2.83-40.55-7.35-2.27-2.86-1.58-6.4-.71-10.89,1.25-6.38,5.05-15.05,9.46-25.09,7.73-17.64,17.36-39.59,14.58-55l1.66-.3c2.87,15.93-6.87,38.14-14.7,56-4.36,9.95-8.13,18.54-9.34,24.74-.82,4.22-1.42,7.28.37,9.52,3.15,4,14.17,5.85,39.29,6.71Z"/><rect class="cls-18" x="251.28" y="527.55" width="1.76" height="77.11"/><rect class="cls-18" x="194.47" y="569.79" width="77.14" height="1.76" transform="translate(-380.05 506.66) rotate(-61.83)"/><rect class="cls-18" x="270.41" y="532.1" width="1.76" height="77.14" transform="translate(-237.57 196.06) rotate(-28.21)"/><path class="cls-7" d="M302.2,526.16,227,525.68l-2.51-13.47s38.25-.54,60.07,1.75,17.3,6.36,17.3,6.36Z"/><polygon class="cls-18" points="302.58 522.34 216.47 521.15 219.3 528.42 303.09 528.27 302.58 522.34"/><path class="cls-13" d="M251.66,584.13c2.35,3.66,5.65-.55,8.68-2.58,1.26,3-.8,7.06-.08,11.47.44,2.49,6.31,12.19,10.88,11.07-3.69-7-4.78-8-4.84-9.59-2.18-9.08,2-16.75,3.25-25.27C258.41,563.53,259.52,578.91,251.66,584.13Z"/><path class="cls-12" d="M326.68,496.87c-.5-5.55-10.27-6.45-14.64,2.92-.27.57-39.09,66.76-39.09,66.76s-.58,1-1.36,2.57c-1.11.09-2,.11-2,.11s-3.95,13.5-4.36,21.72c-.26,5.33,2.39,6.52,2.39,6.52s-.28-.43.27-3a63.22,63.22,0,0,1,7.56-19c1.15-1.34,2.42-2.86,3.79-4.51a6.36,6.36,0,0,1,.72-.51l-.22-.09c14.14-17.09,38.22-48.15,45.9-63.52C327.85,502.34,326.88,499.13,326.68,496.87Z"/><path class="cls-19" d="M302.85,412.71c-.21-.12-1.76,1.14-2,1.09l-20.58,37.69,3.51-.05a14.44,14.44,0,0,0,1-1.6l18.59-34.57A1.69,1.69,0,0,0,302.85,412.71Z"/><path class="cls-20" d="M304.9,413.76c-.21-.11-1.67-.91-1.85-1.36l-21.12,39c0,.16,0,.15-.07.06l-49.28.64a21.18,21.18,0,0,0-.06,2.12,1.66,1.66,0,0,0,1.92,1.75l45.67-.59a1.73,1.73,0,0,0,1.7-.95c0,.08,0,.14.06.16a1.74,1.74,0,0,0,2.54-.89l21-37.34A1.74,1.74,0,0,0,304.9,413.76Z"/><path class="cls-18" d="M134.67,503.53a97.53,97.53,0,0,1-13-3.63l.37-1.06a95.84,95.84,0,0,0,12.9,3.58Zm-25.44-9.08a89.89,89.89,0,0,1-11.45-7.26l.68-.9a87.52,87.52,0,0,0,11.3,7.16ZM87.55,478.32a98.45,98.45,0,0,1-8.87-10.24l.9-.67a98.17,98.17,0,0,0,8.76,10.12ZM71.24,456.76a118.07,118.07,0,0,1-6-12.13l1-.44a120,120,0,0,0,6,12ZM60.55,431.91c-1.31-4.25-2.44-8.67-3.35-13.13l1.1-.22c.91,4.42,2,8.8,3.33,13Zm-5.45-26.5c-.49-4.46-.79-9-.89-13.51l1.13,0c.09,4.47.39,9,.88,13.41Zm.55-27-1.12-.07c.31-4.52.82-9,1.53-13.44l1.11.18C56.47,369.48,56,374,55.65,378.45ZM60,352l-1.09-.28A123.74,123.74,0,0,1,63,338.81l1.05.41A119.71,119.71,0,0,0,60,352ZM69.7,327l-1-.54A89.47,89.47,0,0,1,76,315.09l.89.68A88.32,88.32,0,0,0,69.7,327Zm110-16.88a134.18,134.18,0,0,1-9.11-10l.87-.71a131.82,131.82,0,0,0,9,9.92Zm-7.07-4a134.06,134.06,0,0,0-11.79-6.43l.49-1c3.9,1.87,7.89,4.05,11.88,6.48Zm-86.66-.23-.75-.83a63,63,0,0,1,11-8l.56,1A61.65,61.65,0,0,0,85.92,305.89Zm62.46-11.24a81.21,81.21,0,0,0-13-3.19l.18-1.11a83.33,83.33,0,0,1,13.17,3.23Zm-39.45-1.81-.31-1.08A57.82,57.82,0,0,1,122,289.57l0,1.12A56.73,56.73,0,0,0,108.93,292.84Zm53.69-3.68a82.3,82.3,0,0,1-6.26-12l1-.43a82.06,82.06,0,0,0,6.17,11.87Zm-10.22-25a57.62,57.62,0,0,1-1.07-10.95c0-.87,0-1.74.07-2.6l1.12.05q-.06,1.28-.06,2.55a57,57,0,0,0,1,10.74Zm2.41-26.59-1.08-.33a57.55,57.55,0,0,1,5.52-12.41l1,.57A56.69,56.69,0,0,0,154.81,237.56ZM298.69,218a83.94,83.94,0,0,0-9.13-9.77l.75-.83a84.58,84.58,0,0,1,9.26,9.9Zm-130.5-3.28-.83-.76a76.44,76.44,0,0,1,10-9.12l.68.89A74.22,74.22,0,0,0,168.19,214.69Zm110.75-14.62a79.41,79.41,0,0,0-11.85-6.2l.44-1a80.71,80.71,0,0,1,12,6.3Zm-89.59-1.59-.53-1A93.77,93.77,0,0,1,201.2,192l.38,1.06A91.5,91.5,0,0,0,189.35,198.48Zm65-8.77a87.53,87.53,0,0,0-13.22-2.09l.09-1.12a88.52,88.52,0,0,1,13.39,2.12Zm-39.89-.34-.23-1.1a95.72,95.72,0,0,1,13.43-1.85l.08,1.12A95.06,95.06,0,0,0,214.48,189.37Z"/><path class="cls-21" d="M617.6,324.88c-1.69-10.35,15.27-14.41,19.68-8.1-1.41-9.89,6.58-22.86,20.27-24,25.86-2.41,18.37,16.8,30.8,17.08,11.35-.22,2.89-16.63,28.71-8.4,6.19,1.83,9.32,8.74,13.69,17.28,8.84-9.73,14.27-3.39,15.89,6.12A458,458,0,0,1,617.6,324.88Z"/><path class="cls-18" d="M612.07,563.26h-.47v-1.13h.46A70.82,70.82,0,0,0,624.91,561l.21,1.11A72.32,72.32,0,0,1,612.07,563.26Zm-14-1.34A80.43,80.43,0,0,1,585,558.24l.39-1a80.54,80.54,0,0,0,12.88,3.63Zm40.07-3.54-.4-1a75.82,75.82,0,0,0,12-5.9l.58,1A76.82,76.82,0,0,1,638.17,558.38Zm23.14-14-.73-.85a82.07,82.07,0,0,0,9.36-9.56l.86.72A82.74,82.74,0,0,1,661.31,544.39Zm17.28-20.81-1-.56a78.4,78.4,0,0,0,5.73-12.09l1,.39A78.32,78.32,0,0,1,678.59,523.58Zm9.33-25.37-1.1-.18a65.14,65.14,0,0,0,.89-10.62c0-.9,0-1.8-.05-2.7l1.12,0c0,.92.06,1.83.06,2.75A65.09,65.09,0,0,1,687.92,498.21Zm-2.37-26.65a56,56,0,0,0-5.15-12.27l1-.56a56.92,56.92,0,0,1,5.25,12.53Zm-13-23a68.47,68.47,0,0,0-10-8.85l.66-.91a70.28,70.28,0,0,1,10.16,9Zm-21.41-15.8a105,105,0,0,0-12.33-5.26l.38-1.06a106.28,106.28,0,0,1,12.46,5.31Zm-25.19-9.08-2.14-.5-.68-.16.29-.63c1.6-3.44,3.15-6.9,4.61-10.27l1,.45c-1.37,3.17-2.82,6.42-4.33,9.67l1.48.35Zm8.24-23.61-1-.41c1.64-4.24,3.19-8.5,4.6-12.64l1.07.36C637.36,391.52,635.81,395.79,634.16,400.05Zm8.67-25.58-1.07-.31c1.26-4.38,2.4-8.76,3.38-13l1.1.25C645.25,365.67,644.1,370.07,642.83,374.47Zm6.07-26.33-1.11-.19c.75-4.49,1.35-9,1.78-13.32l1.12.11C650.26,339.11,649.66,343.62,648.9,348.14Zm2.58-26.91-1.13,0c0-.92,0-1.83,0-2.74,0-3.6-.13-7.19-.39-10.68l1.12-.08c.26,3.51.39,7.13.39,10.76C651.5,319.39,651.49,320.31,651.48,321.23Zm-3.16-26.74a113.67,113.67,0,0,0-3.14-13l1.07-.33a113.85,113.85,0,0,1,3.17,13.16Zm-7.87-25.56a97.18,97.18,0,0,0-6.39-11.77l1-.6a97.94,97.94,0,0,1,6.46,11.9Zm-14.4-22.5a92.84,92.84,0,0,0-9.47-9.45l.74-.85a94.08,94.08,0,0,1,9.58,9.57ZM447.61,230.81l-.47-1c1.1-.52,2.2-1,3.3-1.51l.46,1C449.8,229.79,448.71,230.3,447.61,230.81ZM605.86,229a105.77,105.77,0,0,0-11.69-6.53l.48-1A107.25,107.25,0,0,1,606.47,228Zm-142.54-4.8-.4-1.05c4.22-1.61,8.51-3.11,12.76-4.45l.34,1.07C471.79,221.05,467.52,222.55,463.32,224.15Zm118.43-6.79a128.3,128.3,0,0,0-12.91-3.66l.25-1.09a127.12,127.12,0,0,1,13,3.68Zm-92.8-1.3-.27-1.09c4.39-1.1,8.83-2.06,13.21-2.86l.2,1.1C497.74,214,493.32,215,489,216.06Zm66.67-4.69c-4.36-.56-8.86-.94-13.39-1.13l0-1.12c4.55.19,9.09.57,13.48,1.13Zm-40.23-.12-.13-1.12c4.52-.51,9.06-.85,13.49-1l0,1.12C524.39,210.4,519.88,210.74,515.39,211.25Z"/><path class="cls-22" d="M674.23,514.25c-2.39-4.94-1.45-12.33-.16-22.56.83-6.52,1.77-13.9,2.21-22.78l2.43.12c-.45,9-1.43,16.73-2.22,23-1.25,9.82-2.15,16.91-.07,21.2Z"/><path class="cls-23" d="M720.19,403.94c1.42,7.16,8.15,17.75,3.48,23.74-4.2,5.38-17,5.28-20,11.76-4.27,9.42,8.71,9.1,1.54,17.75-3,3.56-18.08,16.69-22.18,18.78-2.34,1.19-7.57,8.25-13.89,5.26-13.88-6.58,14.37-98.69,47.2-106.2C731.42,371.59,719,397.69,720.19,403.94Z"/><path class="cls-22" d="M668.78,481l-1.23-.27c11.52-52.23,25.85-71.53,41-92l3.6-4.86,1,.74q-1.81,2.44-3.6,4.87C694.49,409.84,680.24,429,668.78,481Z"/><path class="cls-22" d="M708.55,411.35c-8.07-.21-11.93,3.12-17.26,7.74l-2.44,2.09-.8-1c.84-.71,1.65-1.41,2.42-2.08,5.34-4.61,9.56-8.26,18.11-8Z"/><path class="cls-22" d="M679,444.36l-.82-.95c1-.81,1.78-1.56,2.51-2.23,3.35-3.06,5.38-4.91,11.61-6.07l.23,1.23c-5.88,1.09-7.7,2.75-11,5.76C680.79,442.78,680,443.54,679,444.36Z"/><path class="cls-22" d="M697.53,406.07l-1.2.57c1.5-3.07,2-7.64,2.51-11a55.44,55.44,0,0,1,1.16-6.44l1.21.33a53.29,53.29,0,0,0-1.13,6.28C699.61,399.27,699.12,402.82,697.53,406.07Z"/><path class="cls-22" d="M672.7,525.91a170.09,170.09,0,0,1-.44-26.27c.34-8.21.59-14.14-1.78-17.56l2-1.38c2.84,4.09,2.57,10.36,2.21,19.05a167.91,167.91,0,0,0,.44,25.91Z"/><path class="cls-24" d="M686.76,377.71c5,6.64,9,14.28,7.19,22.74-1.65,7.61-13.39,26.06-13.2,34.16.28,11.79,13.61,9.13,10.53,21.56a38.1,38.1,0,0,1-7,13.87c-1.81,2.38-3.69,12.22-11.65,12.28-17.51.12-17.43-12.15-22.51-17.63-10.44-11.28-19.4-26.36-14.75-38.56,1.91-5,10.27-4.2,11.93-9.26,1.52-4.64-5.85-16.9-6.1-22.56-.51-11.76,10.87-7.86,10.48-14-.83-13.12,14.47-37,23.12-36.51C692.38,344.79,682.38,371.91,686.76,377.71Z"/><path class="cls-22" d="M672,482.31l-1.4-.36c-14-59.31-8.69-85.57-3.24-114,.43-2.25.86-4.49,1.28-6.77l1.24.23c-.43,2.28-.86,4.53-1.29,6.77C663.2,396.48,658.08,423.26,672,482.31Z"/><path class="cls-22" d="M663,410.88l-1.14-.51c.52-1.15,1-2.26,1.46-3.33,3.19-7.37,5.71-13.18,14.57-17.18l.51,1.14c-8.42,3.8-10.73,9.14-13.93,16.53C664,408.61,663.55,409.73,663,410.88Z"/><path class="cls-22" d="M664.4,439.57l-1.15-.5c.57-1.3,1-2.49,1.46-3.54,1.93-4.79,3.09-7.68,8.9-11.94l.74,1c-5.52,4-6.57,6.66-8.48,11.4C665.45,437.05,665,438.25,664.4,439.57Z"/><path class="cls-22" d="M664.46,391.11l-.93,1.45c0-3.9-1.52-9.15-2.7-12.81a59.69,59.69,0,0,1-2-7.16l1.23-.24a58.87,58.87,0,0,0,2,7C663.23,383.12,664.49,387,664.46,391.11Z"/><path class="cls-6" d="M699.08,606.4c2.61-55.9,15.78-93.75,16.72-105.94H631.64c.94,12.19,7.94,37.63,16.72,106Z"/><path class="cls-25" d="M718.57,501.41h-91s-2.18-8.53,0-8.75a444.26,444.26,0,0,1,91,0Z"/><path class="cls-17" d="M243.85,600.9l6,1.16S254,601,254.06,601c2,3,4.54-2.47,7.35-.89s4,1.93,7.16,3.77c.6.36.55,1.14.05,1.76-2,2.55-5.55,1.73-7.72,1.36s-12.5,3.63-13.4,4.76c-.61.76-5.45-.94-4.88-2.43C244.08,605.49,243.22,602.86,243.85,600.9Z"/><path class="cls-17" d="M190.77,599.8l7.4,1.48s5.16-.9,5.2-.9c2.6,3.13,5.48-2.26,9-.52s5.09,2.16,9,4.18c.76.4.73,1.18.15,1.79-2.37,2.48-6.75,1.46-9.45,1s-15.24,3-16.29,4.13c-.71.74-6.77-1.23-6.15-2.71C191.29,604.45,190.09,601.76,190.77,599.8Z"/><path class="cls-26" d="M168.55,452.84c8.65-6.22,11.93-15.7,12.87-18.94,13.53,11.48,16.06,16.83,37,12.66,3-.6,7.61,3.12,7.75,8.35.09,3.43-4.1,4.62-12.63,6.86C196.46,466.24,168.55,452.84,168.55,452.84Z"/><path class="cls-11" d="M233.47,449.25a20.16,20.16,0,0,0,3.58-.22C234.32,448.76,232.65,448.73,233.47,449.25Z"/><path class="cls-12" d="M236.65,440a18.14,18.14,0,0,1-2,1.18c-7.94,4-13.09,3.86-15.38,4.44l-2.45.64c.79,2.12,1.6,4.23,2.38,6.36,6.56-.6,17.06-.23,20.91-.68,5-.59,5.46-1.21,5.46-1.21-.77-1.47-5.31-1.25-7.76-1.49a20.73,20.73,0,0,1-4.33.06c-.82-.52,2.46-1.74,5.19-1.47,2.68-.27,8.63,2.53,9.17,2.76a25.7,25.7,0,0,0,7.82.26C257.5,450.86,239.53,441,236.65,440Z"/><polygon class="cls-27" points="139.47 609.36 176.19 461.65 162.11 458.27 130.51 609.36 139.47 609.36"/><polygon class="cls-28" points="156.87 539.37 176.19 461.65 162.11 458.27 156.87 539.37"/><path class="cls-29" d="M198.44,496.65c-5.71-3.06-26.18-5.23-30.07-3.59-1.13-.85,1.76,15.92,1.09,9.88l22.72,17.35c14.06,1.85,7,46.61-2.57,80.67,10.91,8.47,22-.34,27.27.73-.25-2.17,9.16-40.61,6.3-70C221.34,512.71,212.77,498.78,198.44,496.65Z"/><path class="cls-6" d="M238.79,508c-16.08-5.16-37.6-22.89-41.95-20.78-.19.1-32.92,1-38.22,2.15-13.39,3-3.07,29.51,8.23,29.71,46.9,2.84,45.56,6.27,53.42,13.22,2.26,2,15.81,51.58,23,72.38,11.62,3,18.63-4.22,17.25-4C258.3,598.17,252.86,525.56,238.79,508Z"/><polygon class="cls-27" points="277.69 609.36 246.08 458.27 232 461.65 268.72 609.36 277.69 609.36"/><polygon class="cls-28" points="251.32 539.37 232 461.65 246.08 458.27 251.32 539.37"/><polygon class="cls-27" points="466.13 609.36 436.75 458.27 422.67 461.65 459.39 609.36 466.13 609.36"/><polygon class="cls-28" points="441.99 539.37 422.67 461.65 436.75 458.27 441.99 539.37"/><polygon class="cls-27" points="330.13 609.36 366.86 461.65 352.77 458.27 323.4 609.36 330.13 609.36"/><polygon class="cls-28" points="347.53 539.37 366.86 461.65 352.77 458.27 347.53 539.37"/><rect class="cls-7" x="254.31" y="455.58" width="256.42" height="8.95"/><rect class="cls-18" x="117.67" y="455.58" width="156.14" height="8.95"/><rect class="cls-18" x="171.63" y="532.42" width="1.76" height="77.11"/><rect class="cls-18" x="114.82" y="574.66" width="77.14" height="1.76" transform="translate(-426.32 438.75) rotate(-61.8)"/><rect class="cls-18" x="190.75" y="536.97" width="1.76" height="77.14" transform="translate(-249.33 158.99) rotate(-28.21)"/><path class="cls-12" d="M184.34,359c-3.35.09-9.66,3-18.15,4.19-.61.14.46,4.81,1,8.42,0,.46,1.37,2.51.42,1.39-3.91-4.42-5.7.55-4.78,3.13a15.23,15.23,0,0,0,2.75,5c.39,1-2.27-1.17-3.4,0-.09.1-1.55,10.31-1.55,10.31l-3.31,11s2.13,2.17,12.33,2.83c9.9.51,9.14-6.27,9.14-6.27s-.75-10,.66-9.9c7.36.41,3.42-10.24,5.09-10.37,4.73-.36-.41-2.07-.16-7.94C184.42,369.68,184.68,359,184.34,359Z"/><path class="cls-30" d="M168.88,384.09c-.8-.68,9.9,15,9.9,15s-.7-10.25.66-9.9C179.87,389.27,175.21,389.38,168.88,384.09Z"/><path d="M158.66,361.29c5.5-2.29,1.78-2,9.21-7,3.68-2.44,6.41-2.92,8.48-2.15a6.2,6.2,0,0,1,10.59,4.38c0,3.42.65,10.39-2.78,10.39a6,6,0,0,1-1.75-.28c-2.88-.17-9.31-3.91-14.91-2.78-.2,1.52-.22,8.65,1.77,10.56-.05.45-.51.59-1.46-.53-3.9-4.42-6.25-.26-5,2.17s4,1.36,4,2.21c0,1.47-1.75,4.78-2.88,5.86-2,1.9-2.63,2-2.77-1.2C161,378.36,149.85,365,158.66,361.29Z"/><path class="cls-31" d="M191.44,414.23c0-6.1-6.17-11.35-12.62-14.57-.32-.17-15.89,1.4-20.74-1C156.66,398,137,407.42,139,422.26c0,0,9.57,34.13,6.85,52.62-1.6,10.91,42.34,13.29,45.6,7C193.21,478.43,191.44,414.23,191.44,414.23Z"/><path class="cls-31" d="M150.31,423.68c0-6.13,1.17-10.5,6.54-13.74.26-.16,1.88,2.77,1.88,2.77s13.5-5.15,14.78-5.7a9.76,9.76,0,0,0,2-.89c4.93-2.69,16.85,12.68,16.85,24.79,0,0-.31,35.87,1.95,54.41,1.34,10.94-41.3,12.53-44,6.19C148.85,488.09,150.31,423.68,150.31,423.68Z"/><path class="cls-32" d="M192.55,453.89c-.27-12.53-.18-23-.18-23,0-.68,0-1.38-.11-2.08H180.09C183.12,433.62,192.55,453.89,192.55,453.89Z"/><path d="M176.25,377.45c1.94.88,3.67,3.8,7.47,2.56.31-.1.92,3.75,1.14,7.41.13,2.26,2.21,4.72,2,6.81-.38,3.09-2.7,4.14-4.65,3.58-1.61-.45-3.2-.06-5.44-1.83-1.61-1.27-4.19-2.49-5.43-5a26.7,26.7,0,0,1-2.29-7.43c-.27-1.76,1.34-5-2.16-12C170.27,376.28,174,376.44,176.25,377.45Z"/><polygon class="cls-8" points="183.4 384.39 183.43 382.45 180.03 382.45 183.4 384.39"/><path class="cls-7" d="M179.94,431.65c-30.45-3.26-44.32,2.82-44.32,2.82l3.77,24,40.41.3Q180,445.18,179.94,431.65Z"/><path class="cls-33" d="M171.08,430.94c-24.26-1.34-35.46,3.53-35.46,3.53l3.77,24,31.69.24Z"/><path class="cls-7" d="M222.53,531l-76.86-.48-2.56-13.47s39.07-.54,61.35,1.75,17.68,6.36,17.68,6.36Z"/><path class="cls-33" d="M163.6,517.09c-12.09-.13-20.49,0-20.49,0l2.56,13.47,17.93.12Z"/><polygon class="cls-18" points="222.92 527.21 134.95 526.02 137.84 533.29 223.44 533.14 222.92 527.21"/><polygon class="cls-34" points="163.82 526.41 134.95 526.02 137.84 533.29 163.82 533.25 163.82 526.41"/><path class="cls-18" d="M167.15,536.21a12,12,0,0,1-7.45-2.32c-7.31-5.55-7.42-19.51-7.52-31.82,0-2.4,0-4.69-.11-6.8-.13-3.62,0-7.52.19-12a307.38,307.38,0,0,0-.79-40.91l1.76-.15A308.51,308.51,0,0,1,154,483.3c-.17,4.48-.31,8.35-.18,11.91.07,2.12.09,4.43.11,6.84.09,11.32.2,25.41,6.82,30.44,2.83,2.15,6.63,2.54,11.61,1.2l.46,1.69A21.55,21.55,0,0,1,167.15,536.21Z"/><path class="cls-12" d="M245.09,431.1l9.15,5.91c8.4-7.05,27.44-21.68,24.6-23.49-.56-.36-1-.78-1-1.16.13-.73-1.34-1.52-2.14-1.38s-1-1.74-1.67-1.57c-1.69.39-.82-1.9-2.49-1.09s-4.2,3.18-6.65,5.63c-1,1-6.73,4.38-6.94.41-.08-1.65,2.24-3.81,1.18-5.15-.84-1.06-.92-.86-3.66,3.45C252.94,416.66,254.18,420.89,245.09,431.1Z"/><path class="cls-8" d="M273,409.38a81.74,81.74,0,0,1-8.21,7.45"/><path class="cls-8" d="M275.4,410.93a80.77,80.77,0,0,1-8.22,7.45"/><path class="cls-8" d="M278.05,412.65a81.75,81.75,0,0,1-8.22,7.44"/><path class="cls-31" d="M248,423.28C235.4,433.52,234.69,432,231.08,434c-7.05,4-1.54,4.09-8.7-1.54-27.73-21.79-16.37-25.58-37.64-27.91-7.37-1.18-13.69,22.83-1.76,29.79,4.42,3.24,7.33,9.78,12.29,13.47,8.48,6.31,20.14,9.29,35.34,9.42,11.9-2.3,15.93-14.05,31.86-23.43C265,432.33,248,423.28,248,423.28Z"/><rect class="cls-18" x="211.18" y="455.58" width="62.63" height="8.95"/><path class="cls-31" d="M529.33,346.36c-11.05,7.79-14.19,29.18-31.24,43.15.36,3.34,0,8,.25,11.29,11.92-2,23.47-5.19,32.41-17.68.08-.11,12-22,12.34-40.77C543.09,342.35,532.26,344.3,529.33,346.36Z"/><path class="cls-12" d="M502.26,363.75c2-7.26.69-13.77,5.39-25.11,2.1-5.1,1.34-5.79,1.34-5.79-1.61-.57-1.75,3.23-3,3.8-3.07,1.29-1.83-8-1.74-9.86.22-4.51,1.09-7.45-.48-7.92-1.8-.53-.4,11.79-1.57,9.78-1-1.81-1.56-2-3.27-1.85-.34,0-.69.46-1.42.1-4.63-2.3.43,18.47-.24,24.69-.1,1.1.67,14.46.56,15.46C500.37,368.11,499.73,362.69,502.26,363.75Z"/><path class="cls-12" d="M592.09,434.75l7.28,3.38c-1.14,8-2.86,25.5-5.1,24.44-.45-.2-.89-.33-1.1-.14-.41.36-1.48-.25-1.71-.8s-1.46.09-1.63-.42c-.42-1.2-1.51.23-1.66-1.12a24.17,24.17,0,0,1,.93-6.33c.24-1,.11-5.88-2.45-4.47-1.07.59-1.52,2.87-2.77,2.74-1-.1-.9-.24.73-3.62C586.11,445.27,589.24,444.38,592.09,434.75Z"/><path class="cls-8" d="M589.4,460.56a60,60,0,0,0,1.45-8"/><path class="cls-8" d="M591.3,461.45a60,60,0,0,0,1.46-8"/><path class="cls-8" d="M593.42,462.42a63.56,63.56,0,0,0,1.45-8"/><path class="cls-12" d="M532.74,309.29c1-4,.54-14.23,5.79-9.67,1.47,1.28,2.09-2.58,10.74-1.34.62.14.69,9.89.16,13.57,0,.47-1.19,1.81-.23.66,4-4.5,7.65-.78,6.72,1.85-1.35,3.8.75,2,1.9,3.18.1.1-.25,6.11-.25,6.11l1.81,17.76s-2.18,2.21-12.58,2.88c-10.09.52-9.32-6.39-9.32-6.39s.74-10.34-.66-10.09c-4.46.81-4.33,1.82-3.92-10.54,0-.29-1.77-.53-2.84-1.06C529.28,315.82,531.71,313.6,532.74,309.29Z"/><path class="cls-35" d="M547.57,322.65c.83-.69-10.09,15.25-10.09,15.25s.72-10.45-.66-10.09C536.38,327.93,541.13,328.05,547.57,322.65Z"/><path d="M585.83,596.5l-7.33-.13H574c-3.14,2.25-7.9,2.86-11.62,3.7s-5.29.91-9.47,1.92c-.8.2-.94.89-.52,1.54,1.74,2.62,6.12,2.58,8.79,2.67s8.06-.44,10.69-.58c5.94-.33,8.95-1.57,9.73-.4.52.77,6.7.21,6.41-1.2C587.26,600.4,586.08,598.34,585.83,596.5Z"/><path d="M544.62,596.5l-7.34-.13h-4.51c-3.14,2.25-7.9,2.86-11.62,3.7s-5.29.91-9.47,1.92c-.8.2-.94.89-.51,1.54,1.74,2.62,6.12,2.58,8.78,2.67s8.06-.44,10.69-.58c5.94-.33,9-1.57,9.73-.4.52.77,6.7.21,6.41-1.2C546.05,600.4,544.87,598.34,544.62,596.5Z"/><path class="cls-7" d="M571.84,420.61c.5-2.65-1.51-1.69-1.34-2.29l-37.43,4.16c-7.63,3.44-5.06,147.22-8,177.21,3.9,2.3,9,3.53,19.81.36,4.25-9.94,8.12-101.94,1.54-135.57,1.12,25.85,19,92,18.69,133.32,10.16,4.75,17,.23,21.27-1.43C585.26,578.74,580,442.79,571.84,420.61Z"/><path class="cls-31" d="M527.65,359c0-6.67,4.71-18.3,10.56-21.83.29-.17,2,3,2,3s14.72-5.61,16.11-6.2a11.5,11.5,0,0,0,2.18-1c5.38-2.93,18.37,13.8,18.37,27,0,0-7,38.2-4.52,58.4,1.45,11.92-38.35,14.52-41.3,7.63C529.5,422.3,527.65,359,527.65,359Z"/><path class="cls-8" d="M534.56,343.05l3.25-7.75a9,9,0,0,0,1.34,3.05c.84,1.12,13.87-4,20-5.55-2.53,3-3.28,3.63-12.21,14.66l-8.32-7.77-4.27,4.6Z"/><path class="cls-31" d="M538.18,339.43s2.16-1.17,3.17-.58,1.74,3.5,1.74,3.5l-2.6,5.34.55,50.43-3.36,3.35-2.61-4.1s3.12-49.89,3.35-50-2.26-7-.24-7.95"/><path class="cls-31" d="M587.61,407.4c4,12.07,4.06,20.81,2.09,31.45,3.59,1,7.2,3,10.68,4.5,3.92-12.47,4.49-28.65,3.37-41.59-2.44-28.09-13.49-48.32-22.54-57.87-14-13.18-29-3.58-24.53,5.77C566.89,367.8,580.89,386.88,587.61,407.4Z"/><g class="cls-36"><path class="cls-37" d="M577.71,364.49c-11.61-6.37-13.49,3-13.86,16.86v45.56c5.33-1.9,9-4.73,8.55-8.5-1.33-10.93.1-27.11,1.69-39.67,5.37,9.26,10.29,18.79,13.52,28.66C592.41,422,594.41,373.65,577.71,364.49Z"/></g><path class="cls-8" d="M533.16,321.34l-.11,1.61c1.48,0,5.27-2.19,5.27-2.19Z"/><path d="M562.12,306.73c-.49-.27,1-3.74,1-6.55,0-3.9-4.6-9-11.2-6.76-1.65-2.39-3.9-3.3-6.71-4.58-7.44-3.38-12.16.85-13.79,5.26a5.66,5.66,0,0,0,.89,6c3.13,3.45,7.91-3.68,9.26,2.29.39,1.74,3.74,2.52,5.75,2.29-.1,3.73,1,10.95,1.5,10.08,3.32-5.24,5.85-1.78,5.71,1.1-.12,2.53-1.64,2.82-1.64,2.82.23,1.53,5.14,9.88,5,4C557.71,317.85,572,312.32,562.12,306.73Z"/><path class="cls-31" d="M496.52,346.69s-9.36,35.57-7.47,49.31c.74,5.4,8.08,7.19,13.06,4.95a9.88,9.88,0,0,0,5-13.05l1.33-42.14C505.46,346.82,494.92,345.76,496.52,346.69Z"/><g class="cls-38"><path class="cls-24" d="M504.05,387.34c1.75-4.6,2.83-5.66,4.08-8.75l.06-.22c-.18.25-3.72,6-4.73,9.19Z"/></g><polygon class="cls-39" points="545.32 464.18 546.41 464.48 549.01 484.64 545.32 464.18"/><path class="cls-6" d="M231.43,238l-.66-4.55c-.87-5.89-1.76-12-2.36-18.12l1.61-.16c.6,6.1,1.49,12.18,2.35,18.05l.66,4.55Z"/><path class="cls-6" d="M206.57,248.7l-3.83-2.49c-5-3.25-10.17-6.61-15.19-10.22l.95-1.32c5,3.59,10.14,6.94,15.12,10.18l3.83,2.5Z"/><path class="cls-6" d="M179,278.17l-.3-1.6c6-1.12,12-2.53,17.74-3.9l4.51-1.07.37,1.58-4.5,1.06C191,275.62,185,277,179,278.17Z"/><path class="cls-6" d="M266.81,248.7l-.89-1.35,3.84-2.5c5-3.24,10.14-6.59,15.11-10.18l.95,1.32c-5,3.61-10.18,7-15.18,10.22Z"/><path class="cls-6" d="M294.4,278.17c-6-1.13-12-2.55-17.82-3.93l-4.51-1.06.37-1.58,4.51,1.07c5.77,1.37,11.73,2.78,17.75,3.9Z"/><path class="cls-40" d="M230.08,336.48c0,.35,2,4.82,2,5.17h9.76c0-.35,1.47-4.82,1.43-5.18Z"/><path class="cls-41" d="M224.24,305.89c1,2.47,1.9,14.68,2.78,17.19h20.76c1-2.52,2-14.74,3-17.21,2.36-3.41,13.23-16.07,16.92-27.92,5-14.88-8.94-35.89-30.49-35.91-21.48-.19-36.63,19.35-31.68,34.28C209.29,288.7,219.64,300.34,224.24,305.89Z"/><path class="cls-18" d="M241.18,321.47c-1.57-8.65-.81-26.83,2.34-39.93a3.4,3.4,0,0,1-1.27-.09c-2-.53-3.41-2.76-4.44-5.31-1.48,3.34-3.29,5.18-5.41,5.48a4.81,4.81,0,0,1-2.47-.34c1.87,12.52,3.88,30.69,3.37,40.11l-1.29-.07c.49-8.93-1.5-27.69-3.49-40.82a17.94,17.94,0,0,1-5.25-6.7c-1.35-2.75-2.49-6.39-1.24-7.6l.08-.07a3.07,3.07,0,0,1,3-.55c2.21.91,2.95,4.83,3.35,6.94l0,.09c.37,1.93.78,4.36,1.21,7.13a3.86,3.86,0,0,0,2.52.6c1.45-.2,3.29-1.55,4.95-6a41.4,41.4,0,0,1-1.11-4.33c-.82-4.15.31-7.39,1.85-8.44a1.62,1.62,0,0,1,1.84-.11c1,.62,1.25,2.32.81,4.77a50.35,50.35,0,0,1-2,8.12c1.14,3.35,2.56,5.46,4.06,5.85a2.28,2.28,0,0,0,1.29,0,38.66,38.66,0,0,1,3.6-9.49l.24-.41c.8-1.39,1.56-2.71,2.62-2.6.9.09,1.27,1.17,1.39,1.53,1,3-3,8.44-4.14,9.74a8.93,8.93,0,0,1-2.6,2.16c-3.2,12.85-4.11,31.48-2.53,40.15Zm9-52.51a7.88,7.88,0,0,0-1.36,1.94l-.25.42a34.4,34.4,0,0,0-3.1,7.9,12,12,0,0,0,1.13-1.13c1.75-2,4.55-6.57,3.89-8.48A1.84,1.84,0,0,0,250.19,269Zm-27.29-1.81c-.33.44-.11,2.75,1.53,6.08a19.25,19.25,0,0,0,3.79,5.39c-.34-2.13-.67-4.08-1-5.77l0-.09c-.3-1.6-1-5.35-2.58-6A1.82,1.82,0,0,0,222.9,267.15Zm16-4.64a.7.7,0,0,0-.32.13c-1,.68-2.06,3.34-1.3,7.12.17.85.35,1.66.55,2.42A59.41,59.41,0,0,0,239.3,266c.41-2.34,0-3.29-.25-3.46A.17.17,0,0,0,239,262.51Z"/><path class="cls-42" d="M223.48,320.3,226,323c-2.35-.22-2.47,3.53.49,3.71-3-.12-3.14,3.75-.19,3.79-2.95-.16-3.07,4.19-.29,4.44l-1.86,2c3.82,1.79,24.94,1.68,25.38-.19l-1.68-2c3-.26,2.18-4.19-.3-4a2,2,0,1,0,0-4,1.87,1.87,0,0,0,.35-3.7l2-2.78Z"/></g></g></svg>