<svg id="Ñëîé_1" data-name="Ñëîé 1" xmlns="http://www.w3.org/2000/svg" xmlns:xlink="http://www.w3.org/1999/xlink" viewBox="0 0 605 492"><defs><style>.cls-1,.cls-3{fill:#009ab1;}.cls-1{opacity:0.74;}.cls-2{fill:#fff;}.cls-4{fill:#b0d9c8;}.cls-5{fill:#ee7330;}.cls-6{fill:#63c1c5;}.cls-7{fill:#043c5e;}.cls-8{fill:#394555;}.cls-9{opacity:0.65;}.cls-10{fill:#f8b68f;}.cls-11{fill:#f4a086;}.cls-12{fill:url(#Áåçûìÿííûé_ãðàäèåíò_8);}.cls-13{fill:url(#Áåçûìÿííûé_ãðàäèåíò_8-2);}.cls-14{fill:url(#Áåçûìÿííûé_ãðàäèåíò_8-3);}.cls-15{fill:#223361;}.cls-16{fill:url(#Áåçûìÿííûé_ãðàäèåíò_8-4);}.cls-17{fill:url(#Áåçûìÿííûé_ãðàäèåíò_8-5);}.cls-18{fill:#93cfc7;}.cls-19{fill:#01898c;}.cls-20{fill:#f7a605;}.cls-21{fill:#f18812;}.cls-22{fill:url(#Áåçûìÿííûé_ãðàäèåíò_2);}.cls-23{fill:url(#Áåçûìÿííûé_ãðàäèåíò_2-2);}.cls-24{fill:url(#Áåçûìÿííûé_ãðàäèåíò_2-3);}.cls-25{fill:url(#Áåçûìÿííûé_ãðàäèåíò_2-4);}.cls-26{fill:#11375b;}.cls-27{fill:url(#Áåçûìÿííûé_ãðàäèåíò_8-6);}.cls-28{fill:url(#Áåçûìÿííûé_ãðàäèåíò_8-7);}</style><linearGradient id="Áåçûìÿííûé_ãðàäèåíò_8" x1="366.55" y1="158.49" x2="399.71" y2="158.49" gradientTransform="translate(39.56 -63.99) rotate(10)" gradientUnits="userSpaceOnUse"><stop offset="0" stop-color="#e0f0eb"/><stop offset="1" stop-color="#c0e4ef"/></linearGradient><linearGradient id="Áåçûìÿííûé_ãðàäèåíò_8-2" x1="398.84" y1="168.27" x2="422.18" y2="168.27" gradientTransform="matrix(1, 0, 0, 1, 0, 0)" xlink:href="#Áåçûìÿííûé_ãðàäèåíò_8"/><linearGradient id="Áåçûìÿííûé_ãðàäèåíò_8-3" x1="401.15" y1="170.23" x2="427.63" y2="170.23" gradientTransform="matrix(1, 0, 0, 1, 0, 0)" xlink:href="#Áåçûìÿííûé_ãðàäèåíò_8"/><linearGradient id="Áåçûìÿííûé_ãðàäèåíò_8-4" x1="267.16" y1="226.18" x2="299.41" y2="226.18" gradientTransform="matrix(-1, 0.1, 0.1, 1, 417.24, -1.82)" xlink:href="#Áåçûìÿííûé_ãðàäèåíò_8"/><linearGradient id="Áåçûìÿííûé_ãðàäèåíò_8-5" x1="249.35" y1="233.13" x2="256.04" y2="233.13" gradientTransform="matrix(-1, 0, 0, 1, 418.01, 0)" xlink:href="#Áåçûìÿííûé_ãðàäèåíò_8"/><linearGradient id="Áåçûìÿííûé_ãðàäèåíò_2" x1="150.17" y1="177.56" x2="180.38" y2="177.56" gradientTransform="matrix(-1, 0, 0, 1, 258.17, 0)" gradientUnits="userSpaceOnUse"><stop offset="0" stop-color="#f1f8f8"/><stop offset="1" stop-color="#c0e4ef"/></linearGradient><linearGradient id="Áåçûìÿííûé_ãðàäèåíò_2-2" x1="150.17" y1="186.69" x2="174.53" y2="186.69" xlink:href="#Áåçûìÿííûé_ãðàäèåíò_2"/><linearGradient id="Áåçûìÿííûé_ãðàäèåíò_2-3" x1="512.45" y1="135.84" x2="549.8" y2="135.84" gradientTransform="matrix(-0.99, -0.13, -0.13, 0.99, 994.16, 57.81)" xlink:href="#Áåçûìÿííûé_ãðàäèåíò_2"/><linearGradient id="Áåçûìÿííûé_ãðàäèåíò_2-4" x1="504.82" y1="136.86" x2="549.56" y2="136.86" gradientTransform="matrix(-0.99, -0.13, -0.13, 0.99, 994.16, 57.81)" xlink:href="#Áåçûìÿííûé_ãðàäèåíò_2"/><linearGradient id="Áåçûìÿííûé_ãðàäèåíò_8-6" x1="492.54" y1="373.77" x2="518.55" y2="373.77" gradientTransform="matrix(1, 0, 0, 1, 0, 0)" xlink:href="#Áåçûìÿííûé_ãðàäèåíò_8"/><linearGradient id="Áåçûìÿííûé_ãðàäèåíò_8-7" x1="104.65" y1="369.62" x2="105.96" y2="369.62" gradientTransform="matrix(1, 0, 0, 1, 0, 0)" xlink:href="#Áåçûìÿííûé_ãðàäèåíò_8"/></defs><path class="cls-1" d="M395.4,103.27c-.43-.65-3.3-1.51-6.63-1.83a29,29,0,0,0-2.74-8c2.29-1.81,4.53-4,4.4-5.41-.25-2.93-6.14-8.34-7.36-8.6-.78-.16-3.5,1.32-6.13,3.51a28.82,28.82,0,0,0-7.49-3.84c.35-2.92.4-6-.71-7-2.25-1.89-10.24-1.55-11.28-.87-.65.43-1.51,3.28-1.83,6.6a28.65,28.65,0,0,0-8.25,2.53c-1.77-2.21-3.82-4.28-5.22-4.16-2.92.25-8.34,6.14-8.59,7.36-.15.72,1.11,3.13,3.06,5.58a28.73,28.73,0,0,0-4.27,7.95c-2.64-.25-5.25-.2-6.09.8-1.89,2.25-1.56,10.24-.88,11.28.39.59,2.73,1.34,5.61,1.72a29.34,29.34,0,0,0,2.79,9c-1.91,1.62-3.53,3.38-3.43,4.62.26,2.93,6.14,8.34,7.36,8.59.68.14,2.78-.93,5-2.63a28.89,28.89,0,0,0,8.46,4.26c-.2,2.49-.1,4.88.84,5.67,2.25,1.9,10.24,1.56,11.29.88.58-.39,1.34-2.74,1.72-5.64a28.82,28.82,0,0,0,8.73-3c1.68,2,3.55,3.81,4.84,3.7,2.93-.26,8.34-6.14,8.6-7.36.15-.73-1.13-3.16-3.09-5.62a29.14,29.14,0,0,0,3.83-8c2.79.3,5.67.31,6.56-.75C396.42,112.31,396.09,104.32,395.4,103.27ZM359,119.8a13.09,13.09,0,1,1,14.06-12A13.09,13.09,0,0,1,359,119.8Z"/><path class="cls-2" d="M358.67,125a18.63,18.63,0,1,1,20-17.13A18.64,18.64,0,0,1,358.67,125Zm2.86-36.88a18.36,18.36,0,1,0,16.89,19.73A18.39,18.39,0,0,0,361.53,88.16Z"/><path class="cls-2" d="M386.88,103.14l-.36-.08a26.7,26.7,0,0,1-50.24,15.84h0l-.36,0a27,27,0,0,0,51.14-10A26.39,26.39,0,0,0,386.88,103.14Z"/><path class="cls-2" d="M345.43,84.51a26.58,26.58,0,0,1,16.72-4.32l.35,0c0-.12-.06-.24-.08-.36l-.25,0a27,27,0,0,0-16.87,4.34C345.35,84.29,345.39,84.4,345.43,84.51Z"/><path class="cls-3" d="M322,101.15c-.29-1.08-3.77-3.52-8.12-5.44a41.76,41.76,0,0,0-.1-12.08c3.91-1.42,7.88-3.33,8.36-5.33,1-4.06-4.55-14-6.08-14.88-1-.57-5.32.21-9.84,2a41,41,0,0,0-8.38-8.53c1.77-3.78,3.24-8,2.16-9.71-2.19-3.56-13.11-6.68-14.82-6.22-1.07.28-3.51,3.75-5.43,8.08a41.25,41.25,0,0,0-12.24-.28c-1.41-3.77-3.25-7.48-5.18-7.94-4.06-1-14,4.55-14.88,6.08-.53.91.1,4.72,1.63,8.89a41.34,41.34,0,0,0-9.31,8.81c-3.45-1.52-7-2.61-8.57-1.64-3.56,2.19-6.68,13.11-6.22,14.82.25,1,3.08,3,6.79,4.83a41.47,41.47,0,0,0-.24,13.33c-3.3,1.32-6.28,3-6.69,4.69-1,4.06,4.55,14,6.08,14.88.84.48,4.16,0,8-1.3a41.55,41.55,0,0,0,9.51,9.53c-1.39,3.26-2.32,6.52-1.4,8,2.19,3.55,13.11,6.67,14.82,6.22,1-.26,3-3.1,4.84-6.82a41.26,41.26,0,0,0,13.13-.19c1.36,3.48,3.08,6.72,4.87,7.15,4.07,1,14-4.55,14.89-6.08.53-.92-.11-4.76-1.66-9a41.33,41.33,0,0,0,8.73-9c3.63,1.65,7.5,2.94,9.18,1.91C319.3,113.78,322.42,102.86,322,101.15Zm-56.51,6A18.59,18.59,0,1,1,289.8,97.2,18.59,18.59,0,0,1,265.46,107.14Z"/><path class="cls-3" d="M262.71,114.07a26.46,26.46,0,1,1,34.64-14.15A26.49,26.49,0,0,1,262.71,114.07Zm20.34-48.44A26.08,26.08,0,1,0,297,99.78,26.12,26.12,0,0,0,283.05,65.63Z"/><path class="cls-3" d="M310.54,97.16l-.46-.27a37.92,37.92,0,0,1-74.82-1.11h0l-.51-.11A38.42,38.42,0,0,0,308.19,105,37.91,37.91,0,0,0,310.54,97.16Z"/><path class="cls-3" d="M263,53.5a37.75,37.75,0,0,1,24.46,1.65l.46.21c0-.17,0-.34,0-.52l-.32-.14A38.22,38.22,0,0,0,263,53Z"/><path class="cls-4" d="M174,347.82s2.58-77-49-99.91c-68.74,68.61-1.08,136-1.08,136Z"/><path class="cls-2" d="M125,247.91l-.71.71L144,337.24l-49.75-27c0,.63,0,1.26-.07,1.89l50.31,27.33L150.15,365l1.49-1.08-11.35-51h0L163,289.22c-.24-.56-.48-1.12-.73-1.68L139.85,311l-13.94-62.6c-.32-.15-.63-.31-1-.45Z"/><path class="cls-3" d="M150.08,337.12s-46-61.55-99.47-53.68c-23.16,60.75,40.67,96.87,40.67,96.87l66.7,8.1Z"/><path class="cls-2" d="M108.56,298.84,102,332.27l-50.11-49c-.43.06-.85.1-1.27.17l-.26.71,26.84,26.24-31.57,2.36.06.9.06.79L78.8,312l44.73,43.73-55.27,5.92,1.48,1.54,55.35-5.93,31.76,31,1.13.14-.25-1.65-54.3-53.08,6.66-33.85Z"/><path class="cls-5" d="M141.12,372.78s-61-19.67-88.19,13.77c28.84,83.09,136.56,52.26,136.56,52.26Z"/><path class="cls-2" d="M52.93,386.55c.11.32.23.64.34.95l84.47,20.19-37.29,29.06,1.86.71,37.54-29.27,33,7.89L171.3,414l-64.24-15.35-19-30.53c-.61.09-1.21.19-1.81.3l18.44,29.67L53.54,385.83c-.2.24-.41.47-.61.72Z"/><path class="cls-5" d="M434,345.12s5.67-76.84,59.41-94.1c61,75.57-13.46,135.37-13.46,135.37Z"/><path class="cls-2" d="M493.43,251c.22.26.42.52.63.78L465,337.8l52.35-21.56c0,.63-.08,1.25-.13,1.88l-52.94,21.8-8.4,24.82-1.36-1.23L471.23,314h0l-20-26c.3-.53.6-1.07.91-1.6l19.76,25.68,20.55-60.75c.33-.11.66-.24,1-.34Z"/><path class="cls-3" d="M458.91,337s52.3-56.28,104.64-42.74c16.53,62.87-50.79,92-50.79,92l-67.19.92Z"/><path class="cls-2" d="M504.28,303.4l3,33.94L562.31,294c.41.1.83.19,1.24.3.07.24.12.48.18.73l-29.49,23.22L565.37,324c0,.29-.1.59-.15.88l-.14.78-32.61-6-49.14,38.69,54.31,11.79c-.54.47-1.09.93-1.63,1.38l-54.4-11.81-34.9,27.48h-1.14l.43-1.61,59.66-47-3-34.37Z"/><path class="cls-6" d="M520.87,375.5c11.51,3.65,22.25,10.09,29.35,21.06-37.55,79.53-141.36,37.37-141.36,37.37l33.55-36.79C462.21,375.42,492.85,366.61,520.87,375.5Z"/><path class="cls-2" d="M550.22,396.56c-.14.31-.29.61-.44.91l-86.14,11,34,32.88-1.92.5-34.2-33.11-33.65,4.32,1.77-1.94,65.5-8.4,22.13-28.32c.59.15,1.18.32,1.76.49l-21.5,27.53,52.19-6.69c.18.26.36.51.53.78Z"/><polygon class="cls-3" points="271.45 452.34 210.67 452.34 210.23 279.81 274.49 279.81 271.45 452.34"/><polygon class="cls-7" points="188.61 452.34 127.83 452.34 127.4 337.55 191.66 337.55 188.61 452.34"/><polygon class="cls-5" points="360.09 452.34 290.05 452.34 290.05 206.88 366.28 206.88 360.09 452.34"/><polygon class="cls-7" points="457.01 452.34 386.96 452.34 386.96 166.18 463.19 166.18 457.01 452.34"/><polygon class="cls-8" points="322.29 453.07 387.28 251.01 383.58 251.01 318.58 453.07 322.29 453.07"/><polygon class="cls-8" points="355.89 453.07 420.89 251.01 417.19 251.01 352.19 453.07 355.89 453.07"/><polygon class="cls-8" points="366.74 303.49 366.74 306.5 401.56 306.48 402.16 303.47 366.74 303.49"/><polygon class="cls-8" points="373.94 283.91 373.94 286.92 408.76 286.9 409.36 283.89 373.94 283.91"/><polygon class="cls-8" points="379.89 264.33 379.89 267.34 414.71 267.32 415.31 264.31 379.89 264.33"/><polygon class="cls-8" points="360.4 323.31 360.4 326.33 395.22 326.31 395.82 323.3 360.4 323.31"/><polygon class="cls-8" points="354.45 343.14 354.45 346.16 389.27 346.14 389.86 343.12 354.45 343.14"/><polygon class="cls-8" points="348.29 363.74 346.88 366.76 381.7 366.74 382.3 363.73 348.29 363.74"/><polygon class="cls-8" points="341.76 384.35 340.35 387.36 375.17 387.34 375.77 384.33 341.76 384.35"/><polygon class="cls-8" points="335.64 404.49 334.24 407.5 369.06 407.48 369.65 404.47 335.64 404.49"/><polygon class="cls-8" points="330.58 425.07 329.17 428.08 363.99 428.06 364.59 425.05 330.58 425.07"/><polygon class="cls-3" points="484.29 453.07 419.29 251.01 422.99 251.01 487.99 453.07 484.29 453.07"/><polygon class="cls-3" points="450.68 453.07 385.69 251.01 389.39 251.01 454.38 453.07 450.68 453.07"/><polygon class="cls-3" points="439.83 303.49 439.83 306.5 405.01 306.48 404.42 303.47 439.83 303.49"/><polygon class="cls-3" points="432.63 283.91 432.63 286.92 397.81 286.9 397.21 283.89 432.63 283.91"/><polygon class="cls-3" points="426.68 264.33 426.68 267.34 391.86 267.32 391.26 264.31 426.68 264.33"/><polygon class="cls-3" points="446.18 323.31 446.18 326.33 411.35 326.31 410.76 323.3 446.18 323.31"/><polygon class="cls-3" points="452.13 343.14 452.13 346.16 417.31 346.14 416.71 343.12 452.13 343.14"/><polygon class="cls-3" points="458.29 363.74 459.69 366.76 424.87 366.74 424.27 363.73 458.29 363.74"/><polygon class="cls-3" points="464.81 384.35 466.22 387.36 431.4 387.34 430.8 384.33 464.81 384.35"/><polygon class="cls-3" points="470.93 404.49 472.33 407.5 437.51 407.48 436.92 404.47 470.93 404.49"/><polygon class="cls-3" points="475.99 425.07 477.4 428.08 442.58 428.06 441.98 425.05 475.99 425.07"/><g class="cls-9"><path class="cls-3" d="M372.79,182.59s-88.6,14-132.78,1.92c-7.79-30.08,0-90.69,0-90.69H372.79Z"/></g><path class="cls-3" d="M374.19,94.19H239.28a2.38,2.38,0,0,1-2.37-2.37h0a2.37,2.37,0,0,1,2.37-2.36H374.19a2.37,2.37,0,0,1,2.37,2.36h0A2.37,2.37,0,0,1,374.19,94.19Z"/><path class="cls-2" d="M268.68,161.86a3.22,3.22,0,1,1-3.22-3.22A3.22,3.22,0,0,1,268.68,161.86Z"/><path class="cls-2" d="M351.17,104.69a3.22,3.22,0,1,1-3.22-3.22A3.22,3.22,0,0,1,351.17,104.69Z"/><polygon class="cls-2" points="279.23 163.18 266.86 163.18 266.86 161.66 278.38 161.66 284.26 152.11 301.25 152.11 307.28 138.73 331.58 138.73 348.29 103.88 349.65 104.53 332.53 140.25 308.26 140.25 302.23 153.63 285.11 153.63 279.23 163.18"/><polygon class="cls-2" points="351.56 171.08 256.58 171.08 256.58 105.66 258.1 105.66 258.1 169.56 351.56 169.56 351.56 171.08"/><rect class="cls-2" x="306.94" y="131.82" width="3.29" height="3.29"/><rect class="cls-2" x="306.94" y="127.14" width="3.29" height="3.29"/><rect class="cls-2" x="306.94" y="122.46" width="3.29" height="3.29"/><polygon class="cls-2" points="304.82 121.07 312.34 121.07 308.63 115.26 304.82 121.07"/><rect class="cls-2" x="329.51" y="116.97" width="3.29" height="3.29"/><rect class="cls-2" x="329.51" y="112.28" width="3.29" height="3.29"/><rect class="cls-2" x="329.51" y="107.6" width="3.29" height="3.29"/><polygon class="cls-2" points="327.4 106.21 334.92 106.21 331.2 100.4 327.4 106.21"/><path class="cls-8" d="M397.2,259.88a14.3,14.3,0,0,1-5.87,2.7c-.9.23-1.87-.08-1.87,1.4h5l4.13-.71V264h2.22s.62-3.64-.68-4.1Z"/><path class="cls-10" d="M397.45,257.26l-.25,2.62h0a2.52,2.52,0,0,0,2.73.09l.15-.09.46-2.62Z"/><path class="cls-8" d="M415.15,259.88a14.31,14.31,0,0,1-5.88,2.7c-.89.23-1.86-.08-1.86,1.4h4.95l4.12-.71V264h2.23s.62-3.64-.68-4.1Z"/><path class="cls-10" d="M415.4,257.26l-.25,2.62h0a2.52,2.52,0,0,0,2.73.09l.15-.09.46-2.62Z"/><path class="cls-10" d="M370.65,160.56c-.28.08-.16-.29-2-.94-1.66-.59-4.73-4-4.85-2,1.13,1.58,2.26,3.59,2.26,3.59.78.88,1.63,2.85,2.88,2.81l3.87-.58s1.07-1.68,1.13-1.75l-.54-.61A8.44,8.44,0,0,1,370.65,160.56Z"/><polygon class="cls-11" points="407.94 146.38 407.42 151.5 412.91 151.72 411.81 143.78 407.94 146.38"/><path class="cls-10" d="M406.26,147.32a2.79,2.79,0,0,1-1.54-.37c-1.84-2.67.26-9.88.26-9.88l2.93-1.23,3.74,2.33.21,4.82a3.89,3.89,0,0,1-1.67,3.33h0A7.64,7.64,0,0,1,406.26,147.32Z"/><path class="cls-8" d="M411.06,140.9c-.21-.81-.1-2.68-.93-2.55-.6.1-2.66.19-3.36.19-1.65,0-4.6-.65-4.6-3.17a3.36,3.36,0,0,1,2-2.67,3.42,3.42,0,0,1,2.4,0c1.82.64,4.24,2.05,5.2,1.85,1.62-.32,3.24.63,3.22,2a13.8,13.8,0,0,1-1.52,5.09,7.9,7.9,0,0,1-1.65,2.16h0Z"/><path class="cls-10" d="M412.74,141.08a1.27,1.27,0,0,0-1.55.14c-.48.4-.57,1-.2,1.32a1.24,1.24,0,0,0,1.54-.14C413,142,413.11,141.41,412.74,141.08Z"/><path class="cls-12" d="M402.69,153.8c-10.33,8-30.38,5.91-30.38,5.91l-.92,5.26s25.43,7.51,28.6,1.5S413,145.77,402.69,153.8Z"/><path class="cls-13" d="M410.17,150h-.56c-6.05.23-10.77,8.57-10.77,14.63v21.88h23.34V161.48a11.35,11.35,0,0,0-9.49-11.28A16.55,16.55,0,0,0,410.17,150Z"/><path class="cls-10" d="M402.72,182.3l-5.17.59c-2.11.08-3.8-2.92-4.37-5.23a.48.48,0,0,1,.58-.57,66.78,66.78,0,0,1,7.72,2.24Z"/><path class="cls-14" d="M420.81,156s11.77,15.72,4.38,23.35-24,4.39-24,4.39v-4.85s15.72,0,16.64-5.3-3.74-11.11-3.74-11.11"/><path class="cls-6" d="M422.18,181.39c-7.45,4.29-19.18,2.46-20.8,2.18v-4.43c2,0,15.74-.32,16.64-5.49.93-5.38-3.59-11.06-3.79-11.3l-.36.29c.05.06,4.59,5.76,3.69,10.93s-16.1,5.11-16.41,5.11h-.23V184l.18,0a48.48,48.48,0,0,0,8,.66c4.15,0,9.15-.57,13.08-2.74Z"/><path class="cls-3" d="M398.84,186.53c-2.67,12.95-3.08,26.89-3.14,38.58a308.3,308.3,0,0,0,1.45,32.61H401l8-53.85s.88,8,2.07,21.59c.93,10.66,1.37,19.66,3.87,32.26h3.87s3.33-38.88,3.33-71.19Z"/><polygon class="cls-6" points="407.67 148.63 412.54 148.63 413.32 150.43 407.04 150.43 407.67 148.63"/><path class="cls-15" d="M350.89,133.57l21.3,34.84a.62.62,0,0,0,.87.2h0a.61.61,0,0,0,.2-.86l-21.78-34.47A.33.33,0,0,0,350.89,133.57Z"/><path class="cls-10" d="M371.34,160.87l-3.79-3.06s-.72.42,0,1.53a22,22,0,0,0,1.9,2.43c.65.32,1.28.65,1.92,1Z"/><path class="cls-8" d="M175.6,334a13.81,13.81,0,0,0,5.66,2.6c.86.22,1.8-.07,1.8,1.36h-4.77l-4-.69V338h-2.14s-.6-3.51.65-4Z"/><path class="cls-10" d="M175.36,331.5l.24,2.51h0a2.4,2.4,0,0,1-2.62.09l-.15-.09-.44-2.51Z"/><path class="cls-8" d="M154.77,334a13.81,13.81,0,0,1-5.66,2.6c-.86.22-1.8-.07-1.8,1.36h4.77l4-.69V338h2.14s.6-3.51-.65-4Z"/><path class="cls-10" d="M155,331.5l-.24,2.51h0a2.4,2.4,0,0,0,2.62.09l.15-.09.44-2.51Z"/><path class="cls-7" d="M174,263.42c2.57,12.46,3,25.87,3,37.13a300,300,0,0,1-1.39,31.39H172L164.2,280.1s-.84,7.71-2,20.78c-.9,10.26-1.32,18.93-3.73,31.06h-3.72s-2.21-36.1-2.21-67.19C161.27,264.75,169.55,263.42,174,263.42Z"/><path class="cls-10" d="M190.61,209.52l2.27-2.31a.79.79,0,0,0,.2-.77l-.17-.65a.82.82,0,0,0-.37-.5l-2.75-1.62a.83.83,0,0,0-1,.14l-.27.29a.79.79,0,0,0-.23.56v4Z"/><path class="cls-6" d="M191.13,209.53s-4.26,16.24-6.92,22.24S172.43,248,172.43,248l-5.9-12.2s8.58-5.28,12.57-10.4S188,208.11,188,208.11Z"/><path class="cls-10" d="M137.83,207.42l-1.72-2.74a.82.82,0,0,1,0-.8l.3-.6a.8.8,0,0,1,.48-.4l3-1a.83.83,0,0,1,1,.35l.21.34a.81.81,0,0,1,.1.61l-.87,3.92Z"/><path class="cls-6" d="M167.45,233.52c6.91,3.66,6.54,30.34,6.54,30.34l-21.82,1.77,1.36-21.85s-9.43-10.16-11.94-18A159,159,0,0,1,137.31,207l3.32,0s5.7,14.11,8.69,18,12.15,9,12.15,9Z"/><path class="cls-16" d="M173.78,263.46c0-2.88-.12-20.85-4.32-27.59.07-.16.13-.33.19-.49,4.65,7,4.58,26.32,4.56,28.35Z"/><path class="cls-11" d="M163.07,233.55l.51-3.77,4.28.05.75,4.36-.08.1A12.09,12.09,0,0,0,163.07,233.55Z"/><path class="cls-10" d="M160.54,222.8l1.69,5.69a.92.92,0,0,1,1.07.94,1.16,1.16,0,0,1,.2.4,6.78,6.78,0,0,0,5.43,0c3.48-1.58-.43-8.1-.43-8.1Z"/><path class="cls-8" d="M159.75,227.57a3.61,3.61,0,0,0-1.31-1.38c-2.49-1.29-1-3-.41-3.61s.16-1.93.92-2.89c1.16-1.46,2.82-.63,3.7-1s1.15-1.74,2.65-1.42,1.59,1.41,2.13,1.75,1-1.07,2.66,0c2.49,1.64-1.17,3.49-1.17,3.49a7.3,7.3,0,0,1-5,1,.94.94,0,0,0-1,.52c-.45,1.08.7,5.9.7,5.9l-1.13-.56A2.67,2.67,0,0,1,159.75,227.57Z"/><path class="cls-10" d="M162.06,227.51a.91.91,0,1,0,.2-1.27A.91.91,0,0,0,162.06,227.51Z"/><polygon class="cls-17" points="168.37 232.63 168.66 234.63 161.97 233.96 163.13 231.64 168.37 232.63"/><path class="cls-7" d="M197.79,151.28a39.44,39.44,0,0,0-15.14-11.88c.45,4.63-.69,9.31-4.27,12.6a26.42,26.42,0,0,1,14.46,25.58,9.34,9.34,0,0,1,2.26-.86l1.55-.17c.56-.91,1.1-1.83,1.6-2.78a13.51,13.51,0,0,1,1.14-2.36l0-.06.39-.94c1-2.55,3.46-.85,5.57-2C203.72,159.51,201,155.41,197.79,151.28Z"/><path class="cls-18" d="M163.56,210.35h.34c-.21-.8-.44-1.6-.71-2.39l-.36-1,0-.1L161.72,204a6.54,6.54,0,0,1-.43-2.51,26.31,26.31,0,0,1-13.42-7.14,39,39,0,0,1-7.3,6.67,13.2,13.2,0,0,1-3,1.68c5.16,5.51,13.85,9.64,20.74,11.51C160.17,212.17,160.72,210.53,163.56,210.35Z"/><path class="cls-5" d="M149.35,195.72a25.6,25.6,0,0,1-3.73-3.9,26.43,26.43,0,0,1,35.62-38.14l5.11-12.39c-14.44-8.21-29.36-7.1-44.19,3a39.64,39.64,0,0,0-7,55.63,38.19,38.19,0,0,0,3.58,4Z"/><path class="cls-3" d="M205.39,168.41,192,169a26.41,26.41,0,0,1-31,32.28l-2.66,12.95c9.4,1.62,15.64,1,22.71-2a42,42,0,0,0,12.56-8.28C203.74,194.22,207.77,182.29,205.39,168.41Z"/><path class="cls-19" d="M221.62,259.44l2.21,5.84a1.93,1.93,0,0,1-.63,2.27,7,7,0,0,1-1.16.53c-.4-.08-2.95-8-2.95-8l0-.05A2.09,2.09,0,0,1,221.62,259.44Z"/><polygon class="cls-8" points="222.04 268.08 219.09 260.12 218.71 260.34 221.68 268.24 222.04 268.08"/><polygon class="cls-2" points="222.5 261.75 222.69 262.27 221.68 262.47 221.48 261.96 222.5 261.75"/><polygon class="cls-2" points="222.92 262.88 223.12 263.4 222.1 263.6 221.91 263.09 222.92 262.88"/><path class="cls-10" d="M224.07,258.06l-2.45,1.38h0a1.56,1.56,0,0,0,.54,1.58l.09.07,2.7-.69Z"/><path class="cls-8" d="M243.6,221.23a14.08,14.08,0,0,0-3,7.21c-.42,3.06.73,7.91.85,11.71a9.8,9.8,0,0,1-4.21,8.38l-13.12,9.53.88,2.34s18-2.7,22.67-10.74,5.84-26.26,5.84-26.26Z"/><path class="cls-10" d="M233.15,211.31l-6.75,15.08s-2.77.32-4,1.38a2.87,2.87,0,0,0-.43,2.6.93.93,0,0,0,1.52.54,6.36,6.36,0,0,1,2.33-1.47A2.81,2.81,0,0,0,228,228l9.68-15.19Z"/><path class="cls-10" d="M267.19,181l3.46-3L268,163.43l-4.16-2.12a1.2,1.2,0,0,1,1.48-.47,3.7,3.7,0,0,0,1.89.14s.78-1-.7-1.61c-.82-.56-1.38,0-3.78-.1,0-.37,3.16-1.25,3.16-1.25,1-.31,3.51,1.64,3.51,1.64a1.73,1.73,0,0,1,.32.78l.4,2.72s5.37,14.7,5.37,16.27-3,3.72-3,3.72Z"/><path class="cls-7" d="M248.6,222.74s-2.09,2.51-.84,8.33c.8,3.72,4.3,8.4,6.65,11.62,1.68,2.32,1.72,5.22,1.21,8-1.92,10.7,1.16,23.76,1.16,23.76h2.49s3.75-19.14,4.86-32.6a38.82,38.82,0,0,0-4.3-21.22Z"/><rect class="cls-20" x="265.46" y="156.36" width="2.09" height="7.92" transform="translate(69.2 400.73) rotate(-81.65)"/><rect class="cls-2" x="269.47" y="160.55" width="2.09" height="0.72" transform="translate(72.04 405.21) rotate(-81.65)"/><path class="cls-8" d="M270.58,162c.57.08,1.05,0,1.19-.9s-.31-1.11-.89-1.2Z"/><polygon class="cls-2" points="262.43 160.78 260.91 159.87 261.02 159.11 262.74 158.71 262.43 160.78"/><polygon class="cls-7" points="260.91 159.87 260.25 159.39 261.02 159.11 260.91 159.87"/><rect class="cls-21" x="266.07" y="156.95" width="0.48" height="7.66" transform="translate(68.59 400.95) rotate(-81.66)"/><rect class="cls-21" x="266.21" y="155.95" width="0.48" height="7.66" transform="translate(69.69 400.23) rotate(-81.66)"/><path class="cls-3" d="M242.47,193.17c-4.46,3.27-9.71,19-9.71,19l3.91,2.2,6.38-8.75s.62,10.12-.91,17.89c.7,2.91,4,2.59,9.37,1.57a26.63,26.63,0,0,0,8.87-3.33s.24-14.05.93-21.5-.68-8.24,1.2-8c4.19-2.38,11.06-10,11.06-10L267.19,181l-13.73,8.05A59.39,59.39,0,0,0,242.47,193.17Z"/><path class="cls-10" d="M250.25,174.53l3.31,3.28a5.72,5.72,0,0,1,1.57,5.33l-.39,1.75Z"/><path class="cls-7" d="M246.24,173.3c-8.05,0-4.63,15.44-4.63,15.44s1.44,10,4.63,14c2.76,3.48,8.22,2.43,10.81.76a9.94,9.94,0,0,1,4.18-1.54c2.19-.26,4.8-1.23,4.8-5.19,0-3.72-4.45-6.6-7.37-8.65a9.61,9.61,0,0,1-3.79-5.61C253.93,178.74,251.65,173.3,246.24,173.3Z"/><path class="cls-19" d="M257.21,277.26h6.24c.83.12,1.75.43,1.91,1.39a7.25,7.25,0,0,1,.09,1.27c-.22.35-8.5-.05-8.5-.05l0,0A2.1,2.1,0,0,1,257.21,277.26Z"/><polygon class="cls-7" points="265.45 279.91 256.95 279.87 257.02 280.31 265.46 280.31 265.45 279.91"/><polygon class="cls-2" points="259.68 277.25 260.24 277.26 260.06 278.28 259.52 278.28 259.68 277.25"/><polygon class="cls-2" points="260.88 277.25 261.44 277.26 261.27 278.28 260.72 278.28 260.88 277.25"/><path class="cls-10" d="M256.78,274.49l.43,2.77h0a1.57,1.57,0,0,0,1.67.06l.09-.06.3-2.77Z"/><path class="cls-10" d="M265.29,160.84a1.2,1.2,0,0,0-1.48.47l2.76,1.41.12-.05a14.56,14.56,0,0,1,1.83-.67A24.55,24.55,0,0,0,265.29,160.84Z"/><polygon class="cls-4" points="79.91 180.81 76.52 187.47 83.64 185.85 108 178.17 79.91 180.81"/><polygon class="cls-6" points="76.52 187.47 88.61 186.72 85.65 185.22 76.52 187.47"/><polygon class="cls-22" points="79.91 180.81 77.79 174.31 108 178.17 79.91 180.81"/><polygon class="cls-23" points="108 178.17 83.64 185.85 87.27 195.22 108 178.17"/><path class="cls-6" d="M79.19,194.19a.58.58,0,0,1-.17-.14.56.56,0,0,1,0-.8,16.77,16.77,0,0,1,2.4-1.73.57.57,0,1,1,.57,1,14.42,14.42,0,0,0-2.22,1.61A.58.58,0,0,1,79.19,194.19Z"/><path class="cls-6" d="M87.29,256.6l0,0a17.11,17.11,0,0,1-4.47-3.87.56.56,0,0,1,.08-.8.58.58,0,0,1,.8.07,15.76,15.76,0,0,0,4.17,3.62.57.57,0,0,1-.55,1ZM81,250a.56.56,0,0,1-.24-.22,21.71,21.71,0,0,1-2.18-5.47.57.57,0,0,1,1.11-.28,20.23,20.23,0,0,0,2.06,5.19.56.56,0,0,1-.21.77A.55.55,0,0,1,81,250Zm-2.66-8.72a.59.59,0,0,1-.31-.47l0-.28a27.83,27.83,0,0,1,.29-5.58.57.57,0,0,1,.65-.47.56.56,0,0,1,.48.64,26.29,26.29,0,0,0-.28,5.35l0,.26a.58.58,0,0,1-.53.61A.73.73,0,0,1,78.36,241.29Zm1-9.11a.57.57,0,0,1-.3-.65,43,43,0,0,1,1.9-5.51.57.57,0,0,1,.75-.3.57.57,0,0,1,.3.74,42.77,42.77,0,0,0-1.85,5.36.57.57,0,0,1-.69.41Zm3.3-8.57a.56.56,0,0,1-.25-.76l.18-.37a18.76,18.76,0,0,1-2.48-1.39.57.57,0,1,1,.63-1,17.15,17.15,0,0,0,2.37,1.33c.61-1.18,1.28-2.4,2-3.71a.57.57,0,0,1,.78-.2.56.56,0,0,1,.2.77c-.73,1.27-1.39,2.45-2,3.58.54.2,1.08.38,1.63.53a.57.57,0,0,1-.31,1.1c-.62-.17-1.24-.38-1.84-.61l-.21.43a.58.58,0,0,1-.76.26Zm-5.14-4.68a.58.58,0,0,1-.15-.11,15.32,15.32,0,0,1-2.24-2.92,14.38,14.38,0,0,1-1-2,.57.57,0,1,1,1-.43,14.52,14.52,0,0,0,1,1.89,14.14,14.14,0,0,0,2.07,2.7.57.57,0,0,1,0,.81A.58.58,0,0,1,77.5,218.93Zm11.25,5.18a.57.57,0,0,1-.31-.55.56.56,0,0,1,.61-.52,16.89,16.89,0,0,0,5.52-.43.57.57,0,0,1,.28,1.1,17.8,17.8,0,0,1-5.89.46A.65.65,0,0,1,88.75,224.11ZM73.41,210.84a.52.52,0,0,1-.3-.4,18.29,18.29,0,0,1-.06-5.91.57.57,0,0,1,.65-.48.57.57,0,0,1,.47.65,17.14,17.14,0,0,0,.06,5.54.58.58,0,0,1-.47.66A.53.53,0,0,1,73.41,210.84Zm24.26,11.62a.58.58,0,0,1-.24-.25.57.57,0,0,1,.24-.77c.43-.22.84-.46,1.24-.71a11,11,0,0,0,2.91-2.79.57.57,0,0,1,.79-.13.57.57,0,0,1,.13.8,12,12,0,0,1-3.21,3.07c-.43.28-.88.54-1.34.78A.59.59,0,0,1,97.67,222.46ZM87.16,215.6l0,0a.57.57,0,0,1-.17-.79,22.19,22.19,0,0,1,3.71-4.57.57.57,0,0,1,.8,0,.58.58,0,0,1,0,.81,21.14,21.14,0,0,0-3.51,4.34A.57.57,0,0,1,87.16,215.6Zm-13-13.83a.57.57,0,0,1-.28-.69,19.41,19.41,0,0,1,1-2.48,18.26,18.26,0,0,1,1.71-2.74.57.57,0,0,1,.91.68A17.8,17.8,0,0,0,75,201.45a.56.56,0,0,1-.73.35Zm29.34,13.92a.58.58,0,0,1-.3-.64,5.13,5.13,0,0,0-.37-3.74,4.25,4.25,0,0,0-.78-1.07.58.58,0,0,1,0-.81.57.57,0,0,1,.8,0,5.54,5.54,0,0,1,1,1.33,6.34,6.34,0,0,1,.47,4.54.58.58,0,0,1-.69.42Zm-9.89-6.46a.57.57,0,0,1,0-1,9.16,9.16,0,0,1,6-.56.57.57,0,1,1-.28,1.1,8.16,8.16,0,0,0-5.24.5A.6.6,0,0,1,93.62,209.23Z"/><path class="cls-6" d="M90.51,258a.57.57,0,0,1,.41-1.05,12.11,12.11,0,0,0,2.68.45.56.56,0,0,1,.53.6.56.56,0,0,1-.6.53,13.21,13.21,0,0,1-2.92-.49Z"/><polygon class="cls-24" points="430.87 130.25 451.77 121.93 462 121.19 469.4 123.25 430.87 130.25"/><polyline class="cls-4" points="430.87 130.25 468.65 125.46 469.4 123.25"/><polygon class="cls-6" points="468.9 131.87 468.85 131.94 466.59 137.43 430.96 130.27 468.9 131.87"/><polygon class="cls-25" points="476.31 129.42 471.62 124.52 431.11 130.22 464.96 133.47 476.31 129.42"/><path class="cls-6" d="M549.49,212.3a27.46,27.46,0,0,1-3.33-2,.52.52,0,0,0-.74.14.53.53,0,0,0,.13.74,27.59,27.59,0,0,0,3.46,2c.43.22.87.42,1.3.61a.54.54,0,0,0,.71-.27.54.54,0,0,0-.27-.71C550.32,212.71,549.91,212.51,549.49,212.3Z"/><path class="cls-6" d="M487.5,126.8c-1.68,0-3.44.06-5.38.17a.55.55,0,0,0-.51.57.53.53,0,0,0,.57.5c1.92-.11,3.66-.16,5.32-.16a.6.6,0,0,0,.27-.07.54.54,0,0,0-.27-1Z"/><path class="cls-6" d="M496.32,128.33a.55.55,0,0,0,.27-.4.54.54,0,0,0-.46-.6c-1.71-.23-3.52-.39-5.39-.46a.53.53,0,0,0-.56.51.55.55,0,0,0,.52.56c1.83.07,3.61.23,5.29.45A.53.53,0,0,0,496.32,128.33Z"/><path class="cls-6" d="M540,204.6a.53.53,0,0,0-.75-.09.55.55,0,0,0-.09.76A29.8,29.8,0,0,0,543,209.2a.51.51,0,0,0,.75,0,.54.54,0,0,0-.05-.76A28.29,28.29,0,0,1,540,204.6Z"/><path class="cls-6" d="M538,202.77a.53.53,0,0,0,.17-.74c-.25-.41-.5-.82-.73-1.24a26.53,26.53,0,0,1-1.64-3.45.54.54,0,0,0-1,.39,29.36,29.36,0,0,0,1.7,3.59c.25.43.5.86.77,1.28a.53.53,0,0,0,.71.18Z"/><path class="cls-6" d="M534.48,195l.12-.05a.51.51,0,0,0,.25-.6,36.51,36.51,0,0,1-1-5.19.53.53,0,0,0-1.06.13,37.21,37.21,0,0,0,1,5.34A.54.54,0,0,0,534.48,195Z"/><path class="cls-6" d="M526.1,147.86c.37.59.73,1.2,1.08,1.81.52.93,1,1.88,1.45,2.83a.53.53,0,0,0,.71.26l0,0a.53.53,0,0,0,.22-.69c-.46-1-1-2-1.49-2.9q-.52-.94-1.11-1.86a.51.51,0,0,0-.74-.17A.53.53,0,0,0,526.1,147.86Z"/><path class="cls-6" d="M529.85,155.43a38.49,38.49,0,0,1,1.5,5.06.54.54,0,0,0,.64.41.47.47,0,0,0,.15-.06.54.54,0,0,0,.26-.58,38.71,38.71,0,0,0-1.55-5.2.53.53,0,0,0-.68-.32A.54.54,0,0,0,529.85,155.43Z"/><path class="cls-6" d="M520.91,141.18a43.65,43.65,0,0,1,3.39,4.06.55.55,0,0,0,.7.15l0,0a.54.54,0,0,0,.12-.75,44.3,44.3,0,0,0-3.49-4.15.53.53,0,0,0-.77.73Z"/><path class="cls-6" d="M511.87,133.9a.51.51,0,0,0,.53,0,.46.46,0,0,0,.2-.19.53.53,0,0,0-.18-.73,42.38,42.38,0,0,0-4.82-2.5.54.54,0,0,0-.43,1A41.91,41.91,0,0,1,511.87,133.9Z"/><path class="cls-6" d="M532.92,178a.6.6,0,0,0,.27-.07.53.53,0,0,0,.27-.46v-.68c0-1.56,0-3.13,0-4.69a.52.52,0,0,0-.54-.53.53.53,0,0,0-.53.54c0,1.55,0,3.11,0,4.67v.68A.55.55,0,0,0,532.92,178Z"/><path class="cls-6" d="M518.64,139a.53.53,0,0,0,.62.07.49.49,0,0,0,.14-.11.53.53,0,0,0,0-.75,43.08,43.08,0,0,0-4.22-3.41.54.54,0,0,0-.62.88A42.13,42.13,0,0,1,518.64,139Z"/><path class="cls-6" d="M532.91,180.13a.54.54,0,0,0-.54.54c0,2.1,0,3.82.14,5.39a.54.54,0,0,0,.57.5.48.48,0,0,0,.23-.07.53.53,0,0,0,.27-.5c-.09-1.55-.14-3.24-.14-5.32A.54.54,0,0,0,532.91,180.13Z"/><path class="cls-6" d="M553.7,214a.53.53,0,1,0-.34,1,40.88,40.88,0,0,0,5.25,1.36.49.49,0,0,0,.36-.05.54.54,0,0,0-.15-1A42.32,42.32,0,0,1,553.7,214Z"/><path class="cls-6" d="M532.37,163a.54.54,0,0,0-.46.6c.22,1.62.37,3.35.45,5.29a.53.53,0,0,0,.55.51.51.51,0,0,0,.52-.55c-.08-2-.23-3.74-.46-5.39A.53.53,0,0,0,532.37,163Z"/><path class="cls-6" d="M501.17,128.29c-.61-.16-1.22-.29-1.84-.42a.54.54,0,0,0-.21,1c.6.12,1.2.26,1.8.41,1.1.27,2.21.6,3.3,1a.56.56,0,0,0,.44,0,.5.5,0,0,0,.24-.29.53.53,0,0,0-.33-.68C503.45,128.91,502.31,128.57,501.17,128.29Z"/><path class="cls-26" d="M504.14,451.18h-9.51c-1.26.13-2.67.49-2.91,1.59a6.08,6.08,0,0,0-.14,1.44c.34.4,12.94-.05,12.94-.05l.06,0A2,2,0,0,0,504.14,451.18Z"/><polygon class="cls-8" points="491.58 454.2 504.52 454.15 504.41 454.65 491.56 454.65 491.58 454.2"/><polygon class="cls-2" points="500.37 451.17 499.52 451.18 499.78 452.34 500.61 452.34 500.37 451.17"/><polygon class="cls-2" points="498.54 451.17 497.68 451.18 497.95 452.34 498.78 452.34 498.54 451.17"/><path class="cls-10" d="M504.79,448l-.65,3.17h0a3.07,3.07,0,0,1-2.55.06l-.15-.06L501,448Z"/><path class="cls-8" d="M526.36,451.18h-9.51c-1.26.13-2.67.49-2.91,1.59a6.08,6.08,0,0,0-.14,1.44c.34.4,12.94-.05,12.94-.05l.06,0A2,2,0,0,0,526.36,451.18Z"/><polygon class="cls-8" points="513.8 454.2 526.74 454.15 526.63 454.65 513.78 454.65 513.8 454.2"/><polygon class="cls-2" points="522.59 451.17 521.74 451.18 522 452.34 522.83 452.34 522.59 451.17"/><polygon class="cls-2" points="520.76 451.17 519.9 451.18 520.17 452.34 521 452.34 520.76 451.17"/><path class="cls-10" d="M525.94,448l.42,3.17h0a3.07,3.07,0,0,1-2.55.06l-.15-.06L522.14,448Z"/><path class="cls-10" d="M511.76,341.52l7.82,5.11-2.41,6.18-.12.26-.52,0h-.16a6,6,0,0,0-5,3,10.24,10.24,0,0,1-3.7-1,3.8,3.8,0,0,1-1.74-1.32C505.1,349.41,511.76,341.52,511.76,341.52Z"/><path class="cls-10" d="M501.8,343.12s-1,9.09,1,14.88c-.9.78-4.19,4.3-5.22-.27s1.16-16.21,1.16-16.21Z"/><polygon class="cls-8" points="506.5 342.48 508.34 343.67 507.68 345.04 505.7 344.17 506.5 342.48"/><path class="cls-8" d="M507.58,344.13c-.19.42-.2.82,0,.9s.45-.21.64-.63.2-.82,0-.89S507.76,343.71,507.58,344.13Z"/><path class="cls-7" d="M484.27,335.78a.43.43,0,0,0,0,0,18.77,18.77,0,0,1,1.78-3.2,15.83,15.83,0,0,0,1.71-2.8l19,12.45-1.24,2.33-21.27-7.87A6.17,6.17,0,0,0,484.27,335.78Z"/><polygon class="cls-11" points="513.48 356.08 514.17 360.35 508.11 360.35 507.68 355.11 513.48 356.08"/><path class="cls-10" d="M497.85,366.68s-7.15-2.28-9.39-5.34S490,341.52,490,341.52l-.49-3a2.82,2.82,0,0,1,2.75-3.26l1.91,0a1.1,1.1,0,0,1,1,1.54l-2.52,5.65s-1.88,12.69.76,13.66a29.81,29.81,0,0,0,6.71,1.39Z"/><path class="cls-26" d="M511.28,356.08l1.84-4.08-1.19-.75a2.26,2.26,0,0,1-.94-2.63l1.31-3.85s-3.72-.45-3.61-3.92c0-1.79,2.46-1.8,2.46-1.8a3.59,3.59,0,0,0,3,1.79c1-.13,3.67.24,5.48,3.4,1.22,2.13.69,5.47-.38,8-.95,2.24-3.38,3.5-5.79,3.87Z"/><path class="cls-8" d="M518.55,390.34a134.63,134.63,0,0,1-2.26,18.12,16.26,16.26,0,0,0,.56,8.33c4.27,12.69,10.25,31.76,10.25,31.76h-5.32S509.72,426,506.61,414.83,503,400.1,503,400.1l3.7-9.76Z"/><path class="cls-10" d="M514.11,350.1a1.73,1.73,0,0,1-1,1.9c-.76.4-1.56.21-1.78-.43a1.73,1.73,0,0,1,1-1.9C513.09,349.26,513.89,349.45,514.11,350.1Z"/><path class="cls-27" d="M501.19,390.34h17.36V368.07a9.44,9.44,0,0,0-8.57-9.41l-12.07-1.46s-1.42,2.17-5.37,7.22a40.59,40.59,0,0,0,10.25,4.29Z"/><path class="cls-7" d="M518.55,390.34s-2.45,8.87-11.5,18.82a11.62,11.62,0,0,0-3.37,9l1.86,30.35h-5.4s-6.58-25.2-5.16-37.63a57,57,0,0,1,6.21-20.58Z"/><path class="cls-6" d="M487.18,333.71c-.93,1.94-2.2,3.27-2.83,3s-.38-2.12.55-4.05,2.2-3.27,2.83-3S488.12,331.78,487.18,333.71Z"/><path class="cls-10" d="M502.55,339.42l-.16.07a2.42,2.42,0,0,1-1.81.12l-.11,0a3.23,3.23,0,0,1-2.06-2.09h0a.59.59,0,0,1,.69-.76l1.21.25a1.81,1.81,0,0,1,1.14.78Z"/><polygon class="cls-10" points="101.36 355.29 106.88 365.67 100.8 365.38 100.38 354.95 101.36 355.29"/><polygon class="cls-2" points="92.71 350.69 97.8 350.68 99.91 383.59 90.78 383.59 92.71 350.69"/><path class="cls-7" d="M83.36,447.31a2.67,2.67,0,0,0-1,2.25c.23,1.26.56,4.21.56,4.21h1.29l0-2.75c0-.18,2.78,2.75,3.25,2.75h6.85s.45-1.86-3.57-2.45S83.36,447.31,83.36,447.31Z"/><path class="cls-10" d="M86.33,446.05l.93,2.42a3.07,3.07,0,0,0,1.26,1.6,12.1,12.1,0,0,0,3.2,1.45c-1.86,1.59-4.82-.07-6.52-1.24a4.15,4.15,0,0,1-1.65-2.4l-.39-1.83Z"/><path class="cls-7" d="M96.4,447.31a2.67,2.67,0,0,0-1,2.25c.23,1.26.55,4.21.55,4.21h1.3l0-2.75c0-.18,2.77,2.75,3.24,2.75h6.85s.46-1.86-3.57-2.45S96.4,447.31,96.4,447.31Z"/><path class="cls-10" d="M99.37,446.05l.93,2.42a3.09,3.09,0,0,0,1.27,1.6,12,12,0,0,0,3.19,1.45c-1.86,1.59-4.82-.07-6.51-1.24a4.16,4.16,0,0,1-1.66-2.4l-.39-1.83Z"/><path class="cls-19" d="M88.8,383.59s-.85,4.92,4.07,29.1c-4,12.6,2.39,33.69,2.39,33.69h4.65l3.17-62.79Z"/><path class="cls-7" d="M97.24,350.69l1.65,39.93,5.48-2.34a58.76,58.76,0,0,1-2.24-17.91c-.83-7.53,3.44-3.57-1.79-18.07C98.39,350.68,97.24,350.69,97.24,350.69Z"/><path class="cls-11" d="M98,346.56l-.64,3.37a2.14,2.14,0,0,1-3.25,1.41l-2.24-1.4,4-9.07Z"/><path class="cls-6" d="M84.33,383.59s-6.09,4.92-1.17,29.1c-4,12.6-.47,33.69-.47,33.69h4.17L98.6,383.59Z"/><path class="cls-7" d="M92.71,347.3s-5.14,2.89-6.74,5.47-2,8.06-2.2,13c-.2,6.84-3.5,24.81-3.5,24.81H94.05l.34-39.12Z"/><path class="cls-8" d="M102.85,336.46c-3.11-.79-6.11,2.41-6.11,2.41L94.39,351.5l-3.6-5.56s-.21-7.55,3.28-12.55c2.49-3,7.29-2.16,9.71.78a7.46,7.46,0,0,1,1.31,5.23c-.15,2.45-.85,16.47-.85,16.47l-7.14-5.29a32.75,32.75,0,0,1,.86-4C99.13,342.1,105,337,102.85,336.46Z"/><path class="cls-10" d="M95.81,338.68a1.12,1.12,0,0,1,1.33.69,1,1,0,0,1-.34,1.37,1.12,1.12,0,0,1-1.33-.69A1,1,0,0,1,95.81,338.68Z"/><path class="cls-10" d="M99.15,347.15a2.43,2.43,0,0,0,1.53.2c2.71-2,3.69-9.81,3.69-9.81l-2.15-2.28-4.28.94-2.1,4.67a4.28,4.28,0,0,0,.17,3.88h0A6.89,6.89,0,0,0,99.15,347.15Z"/><path class="cls-8" d="M103.57,336.3c-.22,2.37-6.83,2.57-6.83,2.57l-.34-3.22,3.85-2.12,3,1.84A2.07,2.07,0,0,1,103.57,336.3Z"/><path class="cls-8" d="M103.43,336.76a4.54,4.54,0,0,0,.67,2.42l.53-.95,0-.82-.52-.64S103.64,335.88,103.43,336.76Z"/><path class="cls-10" d="M87.38,352.77c-6.67.78-3.52,18-2.09,25.05a3,3,0,0,0,3.82,2.26c5.8-1.83,14.28-9.42,14.28-9.42l-1.34-1.7-11.26,2.63S95.11,351.87,87.38,352.77Z"/><path class="cls-3" d="M100.72,364.92,98.54,378.4a.65.65,0,0,0,.63.75h8.62a.65.65,0,0,0,.64-.54l2.14-13.48a.65.65,0,0,0-.64-.75h-8.58A.64.64,0,0,0,100.72,364.92Z"/><path class="cls-10" d="M110.29,370.89a6.3,6.3,0,0,0-.15-1.75c-.21-1.27-.16-3.27-1.46-2.28a6.57,6.57,0,0,0-1.37,3.19,3.82,3.82,0,0,0,.82,2.85l.9,2A5.67,5.67,0,0,0,110.29,370.89Z"/><path class="cls-28" d="M104.65,369.62a.66.66,0,1,0,.65-.66A.66.66,0,0,0,104.65,369.62Z"/></svg>