<svg id="Ñëîé_1" data-name="Ñëîé 1" xmlns="http://www.w3.org/2000/svg" xmlns:xlink="http://www.w3.org/1999/xlink" viewBox="0 0 2918.33 2387.52"><defs><style>.cls-1{fill:#66b1bd;}.cls-2{fill:url(#Áåçûìÿííûé_ãðàäèåíò_3);}.cls-3{fill:url(#Áåçûìÿííûé_ãðàäèåíò_2);}.cls-4{fill:#afd8c7;}.cls-5{fill:url(#Áåçûìÿííûé_ãðàäèåíò_2-2);}.cls-6{fill:url(#Áåçûìÿííûé_ãðàäèåíò_2-3);}.cls-7{fill:url(#Áåçûìÿííûé_ãðàäèåíò_2-4);}.cls-8{fill:url(#Áåçûìÿííûé_ãðàäèåíò_3-2);}.cls-10,.cls-9{fill:#009ab1;}.cls-9{stroke:#009ab1;stroke-miterlimit:10;stroke-width:10px;}.cls-11{fill:#384555;}.cls-12{fill:#ee7330;}.cls-13{fill:#212b53;}.cls-14{fill:#fff;}.cls-15{fill:#f7b58e;}.cls-16{fill:#f39f85;}.cls-17{fill:url(#Áåçûìÿííûé_ãðàäèåíò_3-3);}.cls-18{fill:url(#Áåçûìÿííûé_ãðàäèåíò_3-4);}.cls-19{fill:#f49b42;}.cls-20{fill:#e7365e;}.cls-21{fill:#ffd147;}</style><linearGradient id="Áåçûìÿííûé_ãðàäèåíò_3" x1="359.82" y1="559.79" x2="1459.43" y2="559.79" gradientTransform="translate(-15.22)" gradientUnits="userSpaceOnUse"><stop offset="0" stop-color="#dfefea"/><stop offset="1" stop-color="#bfe3ee"/></linearGradient><linearGradient id="Áåçûìÿííûé_ãðàäèåíò_2" x1="826.44" y1="1002.51" x2="1048.27" y2="1002.51" gradientUnits="userSpaceOnUse"><stop offset="0" stop-color="#f1f8f7"/><stop offset="1" stop-color="#bfe3ee"/></linearGradient><linearGradient id="Áåçûìÿííûé_ãðàäèåíò_2-2" x1="781.14" y1="1008.57" x2="1046.85" y2="1008.57" xlink:href="#Áåçûìÿííûé_ãðàäèåíò_2"/><linearGradient id="Áåçûìÿííûé_ãðàäèåíò_2-3" x1="-1839.3" y1="278.07" x2="-1659.9" y2="278.07" gradientTransform="translate(4220.21 419.01) rotate(-1.9)" xlink:href="#Áåçûìÿííûé_ãðàäèåíò_2"/><linearGradient id="Áåçûìÿííûé_ãðàäèåíò_2-4" x1="-1839.3" y1="332.33" x2="-1694.63" y2="332.33" gradientTransform="translate(4220.21 419.01) rotate(-1.9)" xlink:href="#Áåçûìÿííûé_ãðàäèåíò_2"/><linearGradient id="Áåçûìÿííûé_ãðàäèåíò_3-2" x1="1474.47" y1="1447.13" x2="2153.93" y2="1447.13" gradientTransform="matrix(-1, 0, 0, 1, 4217.06, 0)" xlink:href="#Áåçûìÿííûé_ãðàäèåíò_3"/><linearGradient id="Áåçûìÿííûé_ãðàäèåíò_3-3" x1="2111.41" y1="1680.87" x2="2114.7" y2="1680.87" gradientTransform="matrix(-1, 0, 0, 1, 4585.75, 0)" xlink:href="#Áåçûìÿííûé_ãðàäèåíò_3"/><linearGradient id="Áåçûìÿííûé_ãðàäèåíò_3-4" x1="2014.61" y1="1688.03" x2="2058.84" y2="1688.03" gradientTransform="matrix(-1, 0, 0, 1, 4585.75, 0)" xlink:href="#Áåçûìÿííûé_ãðàäèåíò_3"/></defs><polygon class="cls-1" points="2152.92 1173.32 2136.52 420.9 2003.81 422.84 2011.21 1173.32 2152.92 1173.32"/><polygon class="cls-1" points="2073.38 514.65 2242.54 516.53 2074.29 200.24 2074.29 196.81 2073.38 198.53 2072.46 196.81 2072.46 200.24 1904.21 516.53 2073.38 514.65"/><path class="cls-2" d="M344.6,732.59H1418.33s58.23-73.66,0-123.23c-32.13-27.35-70.08-24.52-97.64-16.49-18,5.24-35.87-6.87-39.81-25.16-6.53-30.28-26.65-69.91-84.45-93.33-56.86-23-92.83,12.14-113.64,48.28-6.85,11.89-25.07,10.11-29.2-3-18-57.06-80.85-132.7-287.24-132.7C503.84,387,533,526.54,556.47,584.54a13.38,13.38,0,0,1-15.17,18.24c-40.5-8.66-115.65-19.88-149.36,6.58C344.6,646.52,344.6,732.59,344.6,732.59Z"/><polygon class="cls-3" points="1048.27 1040.76 931.29 976.2 871.57 964.25 826.44 970.89 1048.27 1040.76"/><polyline class="cls-4" points="1048.27 1040.76 829.22 984.45 826.44 970.89"/><polygon class="cls-1" points="822.97 1022.03 823.25 1022.49 832.44 1056.5 1047.72 1040.78 822.97 1022.03"/><polygon class="cls-5" points="781.14 1002.11 812.39 976.74 1046.85 1040.4 845.02 1034.4 781.14 1002.11"/><path class="cls-1" d="M288.41,1436.11a163,163,0,0,0,21.07-9.15,3.18,3.18,0,1,1,2.94,5.65,169.67,169.67,0,0,1-21.9,9.5q-4,1.42-8.12,2.65a3.17,3.17,0,0,1-2.81-.49,3.09,3.09,0,0,1-1.15-1.64,3.18,3.18,0,0,1,2.13-4C283.2,1437.88,285.81,1437,288.41,1436.11Z"/><path class="cls-1" d="M717.13,978.39c9.93,1.27,20.27,2.91,31.61,5a3.18,3.18,0,0,1-1.16,6.26c-11.22-2.07-21.44-3.69-31.26-4.95a3.18,3.18,0,0,1,.81-6.31Z"/><path class="cls-1" d="M664.05,980.83a3.19,3.19,0,0,1,1.87-5.75c10.21-.09,21,.34,32.09,1.27a3.18,3.18,0,1,1-.54,6.34c-10.88-.91-21.48-1.33-31.5-1.24A3.15,3.15,0,0,1,664.05,980.83Z"/><path class="cls-1" d="M349.82,1397.74a3.13,3.13,0,0,1,4.5.06,3.19,3.19,0,0,1-.06,4.5,177.61,177.61,0,0,1-25.12,20.4,3.17,3.17,0,0,1-3.66-.09,2.93,2.93,0,0,1-.75-.78,3.19,3.19,0,0,1,.87-4.42A171.67,171.67,0,0,0,349.82,1397.74Z"/><path class="cls-1" d="M362.94,1388.42a3.17,3.17,0,0,1-.44-4.48c1.79-2.19,3.54-4.43,5.23-6.71A165.83,165.83,0,0,0,380,1358.11a3.18,3.18,0,0,1,4.31-1.27,3.21,3.21,0,0,1,1.27,4.32A172.3,172.3,0,0,1,372.85,1381c-1.76,2.36-3.57,4.69-5.44,7a3.17,3.17,0,0,1-4.35.54Z"/><path class="cls-1" d="M389.72,1345.33a3.16,3.16,0,0,1-1.72-4.15,217.84,217.84,0,0,0,9.68-29.79,3.18,3.18,0,1,1,6.17,1.56,223.08,223.08,0,0,1-10,30.65A3.18,3.18,0,0,1,389.72,1345.33Z"/><path class="cls-1" d="M474.11,1073.79q-4,4.85-7.71,9.88c-3.75,5.07-7.34,10.32-10.65,15.6a3.19,3.19,0,0,1-4.39,1l-.2-.14a3.18,3.18,0,0,1-.8-4.24c3.4-5.42,7.07-10.8,10.92-16q3.83-5.16,7.91-10.14a3,3,0,0,1,4.48-.44A3.19,3.19,0,0,1,474.11,1073.79Z"/><path class="cls-1" d="M446.37,1115.61a232.7,232.7,0,0,0-12.61,28.71,3.18,3.18,0,0,1-4.08,1.92,3,3,0,0,1-.81-.44,3.17,3.17,0,0,1-1.1-3.63,237.64,237.64,0,0,1,13-29.51,3.18,3.18,0,1,1,5.64,2.95Z"/><path class="cls-1" d="M509.65,1038.31a257.67,257.67,0,0,0-23,21.37,3.18,3.18,0,0,1-4.19.36,3.88,3.88,0,0,1-.31-.26,3.19,3.19,0,0,1-.11-4.5,265.89,265.89,0,0,1,23.6-21.89,3.19,3.19,0,1,1,4,4.92Z"/><path class="cls-1" d="M568.32,1002.09a3.18,3.18,0,0,1-2.58-5.82A253.1,253.1,0,0,1,596,985.14a3.19,3.19,0,1,1,1.81,6.11A245.39,245.39,0,0,0,568.32,1002.09Z"/><path class="cls-1" d="M411.51,1246.24a3.2,3.2,0,0,1-2.8-3.52l.46-4c1.05-9.22,2.1-18.46,3.32-27.66a3.18,3.18,0,0,1,6.31.84c-1.21,9.16-2.26,18.35-3.31,27.54l-.45,4A3.19,3.19,0,0,1,411.51,1246.24Z"/><path class="cls-1" d="M524.65,1026.87a3.17,3.17,0,0,1-3.73,0,3.24,3.24,0,0,1-.71-.72,3.19,3.19,0,0,1,.77-4.44,263.48,263.48,0,0,1,27.4-16.91,3.18,3.18,0,1,1,3,5.61A257.86,257.86,0,0,0,524.65,1026.87Z"/><path class="cls-1" d="M410,1258.89a3.17,3.17,0,0,1,2.76,3.55c-1.56,12.4-3.1,22.46-4.83,31.66a3.19,3.19,0,0,1-6.26-1.18c1.71-9.07,3.23-19,4.78-31.27A3.18,3.18,0,0,1,410,1258.89Z"/><path class="cls-1" d="M262.34,1443.15a3.18,3.18,0,1,1,1.23,6.24,257.7,257.7,0,0,1-31.92,4.13,3.19,3.19,0,0,1-2.12-.62,3.18,3.18,0,0,1,1.67-5.73A252.78,252.78,0,0,0,262.34,1443.15Z"/><path class="cls-1" d="M425.9,1158.4a3.19,3.19,0,0,1,2.25,3.9c-2.51,9.36-4.66,19.44-6.56,30.81a3.18,3.18,0,1,1-6.28-1c1.94-11.58,4.13-21.85,6.7-31.41A3.17,3.17,0,0,1,425.9,1158.4Z"/><path class="cls-1" d="M635.48,977c3.71-.44,7.44-.8,11.16-1.08a3.18,3.18,0,0,1,.48,6.35c-3.64.27-7.26.62-10.89,1-6.73.8-13.52,1.92-20.19,3.33a3.17,3.17,0,0,1-2.55-.55,3.22,3.22,0,0,1-1.22-1.9,3.18,3.18,0,0,1,2.46-3.77C621.58,978.94,628.57,977.79,635.48,977Z"/><polygon class="cls-4" points="2558.41 771.57 2579.85 810.49 2537.26 802.25 2391.15 761.47 2558.41 771.57"/><polygon class="cls-1" points="2579.85 810.49 2507.89 808.41 2525.19 798.88 2579.85 810.49"/><polygon class="cls-6" points="2558.41 771.57 2569.7 732.59 2391.15 761.47 2558.41 771.57"/><polygon class="cls-7" points="2391.15 761.47 2537.26 802.25 2517.55 858.55 2391.15 761.47"/><path class="cls-1" d="M2565.32,850.85a3.5,3.5,0,0,0,1-.82,3.38,3.38,0,0,0-.49-4.76,94.49,94.49,0,0,0-14.56-9.77,3.38,3.38,0,0,0-3.22,5.94,87.71,87.71,0,0,1,13.51,9.08A3.39,3.39,0,0,0,2565.32,850.85Z"/><path class="cls-1" d="M2525,1221.75a3.39,3.39,0,0,1,1-4.67,95,95,0,0,0,24.06-22.29,3.38,3.38,0,0,1,5.35,4.13,101.66,101.66,0,0,1-25.79,23.87l-.18.11A3.39,3.39,0,0,1,2525,1221.75Zm37.24-39.15a3.36,3.36,0,0,1-1.42-4.56,121.17,121.17,0,0,0,11.23-31.15,3.38,3.38,0,1,1,6.61,1.4,127.51,127.51,0,0,1-11.86,32.89,3.37,3.37,0,0,1-4.56,1.42Zm15.5-51.93a3.39,3.39,0,0,1-3.25-3.51l0-1.53a155.57,155.57,0,0,0-2.71-31.69,3.38,3.38,0,1,1,6.64-1.23,163.18,163.18,0,0,1,2.83,33.07l-.05,1.64a3.39,3.39,0,0,1-3.5,3.25Zm-6.48-54a3.38,3.38,0,0,1-4.21-2.27,247.18,247.18,0,0,0-12-31.44,3.38,3.38,0,1,1,6.14-2.82,252.71,252.71,0,0,1,12.35,32.31,3.39,3.39,0,0,1-1.6,3.94A4.84,4.84,0,0,1,2571.25,1076.69Zm-20.69-50.48a3.37,3.37,0,0,1-4.57-1.39c-.44-.84-.89-1.67-1.35-2.51a110.93,110.93,0,0,1-10.8,4,3.38,3.38,0,1,1-2-6.45q4.84-1.53,9.53-3.5c-3.73-6.6-7.83-13.46-12.44-20.83a3.37,3.37,0,1,1,5.72-3.58c4.79,7.63,9,14.73,12.88,21.58a102.51,102.51,0,0,0,13.8-8.32,3.38,3.38,0,1,1,3.94,5.5,110.56,110.56,0,0,1-14.47,8.74c.4.72.79,1.45,1.18,2.18a3.39,3.39,0,0,1-1.36,4.55Zm25.75-29.3a3.39,3.39,0,0,1-.23-4.78,85,85,0,0,0,17-27.86,3.38,3.38,0,0,1,6.34,2.36,91.52,91.52,0,0,1-18.36,30,3.37,3.37,0,0,1-4.77.23Zm-63.08,33.84a105.67,105.67,0,0,1-35.08-1.58,3.38,3.38,0,1,1,1.44-6.6,98.66,98.66,0,0,0,32.84,1.46,3.38,3.38,0,0,1,2,6.32A3.63,3.63,0,0,1,2513.23,1030.75ZM2600.79,949a3.38,3.38,0,0,1-2.87-3.82,102.69,102.69,0,0,0-.79-32.91,3.38,3.38,0,1,1,6.65-1.21,109.14,109.14,0,0,1,.83,35.06,3.37,3.37,0,0,1-1.72,2.49A3.42,3.42,0,0,1,2600.79,949Zm-142.71,73.4a90.57,90.57,0,0,1-8.09-4.33,72.07,72.07,0,0,1-19.69-17.61,3.38,3.38,0,1,1,5.35-4.12,65.38,65.38,0,0,0,17.84,15.94,79.5,79.5,0,0,0,7.47,4,3.38,3.38,0,0,1,1.61,4.5,3.33,3.33,0,0,1-1.42,1.52A3.38,3.38,0,0,1,2458.08,1022.38Zm59.72-43.87c-7.63-11-14.53-19-21.72-25a3.38,3.38,0,0,1,4.36-5.17c7.66,6.46,14.94,14.85,22.92,26.37a3.39,3.39,0,0,1-.85,4.71l-.3.18A3.38,3.38,0,0,1,2517.8,978.51Zm78.35-83.41a3.37,3.37,0,0,1-4.36-2,108.78,108.78,0,0,0-6.33-13.68,103.66,103.66,0,0,0-10-14.93,3.38,3.38,0,0,1,5.26-4.24,109.56,109.56,0,0,1,10.66,15.91,114.85,114.85,0,0,1,6.73,14.54,3.38,3.38,0,0,1-1.53,4.16A2.83,2.83,0,0,1,2596.15,895.1Zm-171.66,88.47a3.39,3.39,0,0,1-4.18-2.33c-2.71-9.52-2.07-18.86,1.88-27a34.14,34.14,0,0,1,5.5-8.13,3.38,3.38,0,1,1,5,4.55,27.46,27.46,0,0,0-4.42,6.52c-3.25,6.74-3.74,14.22-1.46,22.23a3.36,3.36,0,0,1-1.62,3.88A3.14,3.14,0,0,1,2424.49,983.57Zm55.19-40.45a48.26,48.26,0,0,0-31.2-1.9,3.38,3.38,0,0,1-1.88-6.5,54.59,54.59,0,0,1,35.71,2.17,3.38,3.38,0,0,1,1.79,4.43,3.33,3.33,0,0,1-1.47,1.64A3.42,3.42,0,0,1,2479.68,943.12Z"/><path class="cls-1" d="M2510.68,1231.78a3.38,3.38,0,0,0-2.66-6.18,72,72,0,0,1-15.79,3.21,3.38,3.38,0,1,0,.59,6.73,80,80,0,0,0,17.27-3.49A2.88,2.88,0,0,0,2510.68,1231.78Z"/><path class="cls-8" d="M2742.16,1545.49a78.17,78.17,0,0,0-1.26-24.19c-31.13-154.54-190.43-53.9-190.43-53.9s.71-156.91-178.46-109.82-166,118.39-166,118.39-105.3-65.85-140.35,28.59c-5.35,14.43-2.12,28.11,7.2,40.93Z"/><polygon class="cls-9" points="2191.29 1313.87 1978.38 1206.67 1982.63 1204.53 2195.55 1311.72 2191.29 1313.87"/><polygon class="cls-9" points="1982.63 1313.87 1978.38 1311.72 2191.29 1204.53 2195.55 1206.67 1982.63 1313.87"/><polygon class="cls-9" points="2191.29 1421.69 1978.38 1314.49 1982.63 1312.35 2195.55 1419.55 2191.29 1421.69"/><polygon class="cls-9" points="1982.63 1421.69 1978.38 1419.55 2191.29 1312.35 2195.55 1314.49 1982.63 1421.69"/><polygon class="cls-9" points="2191.29 1531.04 1978.38 1423.84 1982.63 1421.69 2195.55 1528.9 2191.29 1531.04"/><polygon class="cls-9" points="1982.63 1531.04 1978.38 1528.9 2191.29 1421.69 2195.55 1423.84 1982.63 1531.04"/><polygon class="cls-9" points="2191.29 1638.87 1978.38 1531.66 1982.63 1529.52 2195.55 1636.72 2191.29 1638.87"/><polygon class="cls-9" points="1982.63 1638.87 1978.38 1636.72 2191.29 1529.52 2195.55 1531.66 1982.63 1638.87"/><polygon class="cls-9" points="2191.29 1748.21 1978.38 1641.01 1982.63 1638.87 2195.55 1746.07 2191.29 1748.21"/><polygon class="cls-9" points="1982.63 1748.21 1978.38 1746.07 2191.29 1638.87 2195.55 1641.01 1982.63 1748.21"/><polygon class="cls-9" points="2191.29 1856.04 1978.38 1748.84 1982.63 1746.69 2195.55 1853.89 2191.29 1856.04"/><polygon class="cls-9" points="1982.63 1856.04 1978.38 1853.89 2191.29 1746.69 2195.55 1748.84 1982.63 1856.04"/><polygon class="cls-9" points="2191.29 1965.38 1978.38 1858.18 1982.63 1856.04 2195.55 1963.24 2191.29 1965.38"/><polygon class="cls-9" points="1982.63 1965.38 1978.38 1963.24 2191.29 1856.04 2195.55 1858.18 1982.63 1965.38"/><polygon class="cls-9" points="2191.29 2073.21 1978.38 1966.01 1982.63 1963.86 2195.55 2071.06 2191.29 2073.21"/><polygon class="cls-9" points="1982.63 2073.21 1978.38 2071.06 2191.29 1963.86 2195.55 1966.01 1982.63 2073.21"/><rect class="cls-10" x="1912.09" y="2073.21" width="333.81" height="33.84"/><rect class="cls-10" x="1909.83" y="1172.2" width="333.81" height="33.84"/><polygon class="cls-10" points="1299.41 2107.05 990.9 2107.05 988.7 1231.31 1314.85 1231.31 1299.41 2107.05"/><polygon class="cls-11" points="878.96 2107.05 570.46 2107.05 568.25 1524.35 894.41 1524.35 878.96 2107.05"/><polygon class="cls-12" points="1749.36 2107.05 1393.84 2107.05 1393.84 861.13 1780.77 861.13 1749.36 2107.05"/><path class="cls-11" d="M411.47,2128.7l52.7-.06c7,.74,14.82,2.72,16.13,8.79a35.07,35.07,0,0,1,.76,8c-1.86,2.19-71.75-.29-71.75-.29l-.3-.25C401.61,2136,411.47,2128.7,411.47,2128.7Z"/><polygon class="cls-13" points="481.06 2145.46 409.31 2145.17 409.93 2147.96 481.17 2147.96 481.06 2145.46"/><polygon class="cls-14" points="432.33 2128.64 437.08 2128.68 435.6 2135.14 431 2135.14 432.33 2128.64"/><polygon class="cls-14" points="442.51 2128.64 447.25 2128.68 445.77 2135.14 441.17 2135.14 442.51 2128.64"/><path class="cls-15" d="M407.85,2111.15l3.62,17.55h0a17.11,17.11,0,0,0,14.13.34l.8-.35,2.54-17.54Z"/><path class="cls-13" d="M288.29,2128.7l52.7-.06c7,.74,14.82,2.72,16.13,8.79a35.07,35.07,0,0,1,.76,8c-1.86,2.19-71.75-.29-71.75-.29l-.3-.25C278.43,2136,288.29,2128.7,288.29,2128.7Z"/><polygon class="cls-13" points="357.88 2145.46 286.13 2145.17 286.75 2147.96 357.99 2147.96 357.88 2145.46"/><polygon class="cls-14" points="309.15 2128.64 313.9 2128.68 312.42 2135.14 307.82 2135.14 309.15 2128.64"/><polygon class="cls-14" points="319.33 2128.64 324.07 2128.68 322.6 2135.14 317.99 2135.14 319.33 2128.64"/><path class="cls-15" d="M290.58,2111.15l-2.29,17.55h0a17.11,17.11,0,0,0,14.13.34l.8-.35,8.44-17.54Z"/><path class="cls-15" d="M369.23,1520.78l-43.41,28.3,13.4,34.3c.19.49.44.94.66,1.41.95-.06,1.91-.12,2.87-.12l.47,0,.45,0c11.62,0,21.6,7.15,27.67,16.77a57.7,57.7,0,0,0,20.49-5.32c4.41-2.1,8.26-4.59,9.65-7.31C406.12,1564.49,369.23,1520.78,369.23,1520.78Z"/><path class="cls-15" d="M424.43,1529.66s5.32,50.37-5.38,82.45c5,4.32,23.21,23.87,28.94-1.47s-6.43-89.86-6.43-89.86Z"/><polygon class="cls-13" points="398.39 1526.09 388.18 1532.66 391.83 1540.28 402.78 1535.45 398.39 1526.09"/><path class="cls-13" d="M392.38,1535.26c1,2.33,1.1,4.55.16,5s-2.52-1.15-3.54-3.48-1.1-4.55-.16-5S391.36,1532.93,392.38,1535.26Z"/><path class="cls-11" d="M521.61,1488.93c0-.09,0-.19,0-.28a102.07,102.07,0,0,0-9.88-17.73c-7.38-10.33-9.48-15.49-9.48-15.49l-105.45,69,6.82,12.88,118-43.59A32.18,32.18,0,0,1,521.61,1488.93Z"/><polygon class="cls-16" points="359.65 1601.46 355.86 1625.15 389.41 1625.15 391.83 1596.12 359.65 1601.46"/><path class="cls-15" d="M446.31,1660.23s39.63-12.62,52.05-29.59-8.6-109.86-8.6-109.86l2.72-16.71A15.57,15.57,0,0,0,477.26,1486l-10.59-.09a6.06,6.06,0,0,0-5.59,8.52L475,1525.77s10.45,70.35-4.19,75.69c-17.46,6.22-37.22,7.72-37.22,7.72Z"/><path class="cls-11" d="M371.85,1601.46l-10.2-22.61,6.63-4.16a12.45,12.45,0,0,0,5.16-14.57l-7.25-21.31s20.65-2.53,20-21.77c0-9.91-13.63-10-13.63-10s-4.07,8.85-16.72,9.91c-5.43-.69-20.34,1.31-30.4,18.87-6.76,11.8-3.8,30.29,2.09,44.17,5.28,12.44,18.75,19.38,32.1,21.43Z"/><path class="cls-13" d="M331.55,1791.41a744.67,744.67,0,0,0,12.53,100.46,89.78,89.78,0,0,1-3.09,46.2c-23.67,70.31-56.85,176-56.85,176h29.52s66.87-124.94,84.1-186.93,20.18-81.65,20.18-81.65l-20.5-54.11Z"/><path class="cls-15" d="M356.17,1568.32c-1.22,3.56,1.24,8.28,5.48,10.53s8.67,1.19,9.89-2.37-1.24-8.28-5.49-10.53S357.38,1564.76,356.17,1568.32Z"/><path class="cls-10" d="M427.78,1791.41H331.55V1667.94a52.39,52.39,0,0,1,47.51-52.16l66.92-8.1s7.87,12,29.8,40c-26.35,16.28-56.85,23.78-56.85,23.78Z"/><path class="cls-11" d="M331.55,1791.41s13.59,49.19,63.74,104.32A64.52,64.52,0,0,1,414,1945.87L403.66,2114.1H433.6s36.49-139.7,28.62-208.57-34.44-114.12-34.44-114.12Z"/><path class="cls-1" d="M505.46,1477.49c5.17,10.74,12.2,18.08,15.68,16.4s2.12-11.75-3-22.48-12.2-18.08-15.69-16.4S500.28,1466.76,505.46,1477.49Z"/><path class="cls-15" d="M420.27,1509.1l.9.43a13.39,13.39,0,0,0,10,.63l.59-.2a17.91,17.91,0,0,0,11.41-11.57h0a3.33,3.33,0,0,0-3.85-4.26l-6.66,1.4a10,10,0,0,0-6.33,4.31Z"/><path class="cls-13" d="M2481.23,2126s-4.75,6.57-27.15,12.28c-4.93,1.26-10.25,2.11-10.25,10.25h22.11l22.61-3.91v3.91h12.21s3.4-20-3.73-22.53Z"/><path class="cls-15" d="M2480.07,2111.67l1.16,14.35h0a13.82,13.82,0,0,0,15,.5l.84-.5v-14.35Z"/><path class="cls-13" d="M2594.64,2128.88s-4.75,6.57-27.15,12.28c-4.93,1.25-10.25,2.11-10.25,10.25h22.11l22.61-3.91v3.91h12.21s3.4-20-3.74-22.53Z"/><path class="cls-15" d="M2593.48,2114.53l1.16,14.35h0a13.84,13.84,0,0,0,15,.5l.83-.5v-14.35Z"/><path class="cls-13" d="M2471.06,1759.17l5.5,360.29h26.25s40-290.88,31.42-360.29S2471.06,1759.17,2471.06,1759.17Z"/><path class="cls-11" d="M2498.8,1759.1s9.14,110.67,30.13,171.94,58.88,188.42,58.88,188.42H2615s-45.37-265.71-35-360.36H2498.8Z"/><path class="cls-1" d="M2475.15,1575.71s-32.35,75.44-40.56,75.44c-6.57,0,2.46-61.6,2.46-61.6H2410s-34.07,105.58-7,124.88,86.62-54.6,86.62-54.6Z"/><path class="cls-15" d="M2571.61,1768.68l-9.8,24.23c-4.73,9.53-22.08,9.77-33.6,6.74a2.39,2.39,0,0,1-1.13-3.92c6.33-6.94,22.75-24.73,28.44-28.71Z"/><path class="cls-1" d="M2501.93,1560c-10.57.1-20.66,5.34-26,14.43a20.59,20.59,0,0,0-3.18,10.35V1759.1h99v-163s-2-36.25-37.46-36.25C2519.15,1559.83,2508.82,1559.89,2501.93,1560Z"/><polygon class="cls-17" points="2474.34 1759.17 2474.34 1602.57 2471.06 1602.68 2471.06 1759.17 2474.34 1759.17"/><path class="cls-16" d="M2538.13,1526.56l-10.55,39.74s-9,7.32-21,4.15-9.65-11.78-9.65-11.78l6.77-25.47,18.89.09Z"/><path class="cls-15" d="M2500.21,1540.35c-3.65-1.09-6.89-2.59-8.25-4.66-6.12-19.71,18.05-62,18.05-62l36.64,17.12-6.88,30.84a26.5,26.5,0,0,1-15.2,18.49h0A42.45,42.45,0,0,1,2500.21,1540.35Z"/><path class="cls-13" d="M2528.34,1486.76a85.33,85.33,0,0,1-26.2-7c-12.8-6-.27-18.48-.27-18.48s8.73,7.18,27.1,9.26c12.39,1.41,16.21,0,22.77,6.05,8.91,8.3,1.42,26.41,1.42,26.41l-16.28,38.2-2.15-.57s5.75-23.76,7.88-31.8c-1.27-4.26-3.71-4.91-5.82-4.49a6.21,6.21,0,0,0-4.64,4.61l-11,41.24s-29.27,4.35-35.41.52,6.45-33.2,6.45-33.2a12.71,12.71,0,0,1,12.79,7c4.15,8.19,13.16,3.21,13.16,3.21Z"/><path class="cls-15" d="M2415.16,1589.55l1-5.2c2.12-11.52,13.12-25.85,24.22-29.61h11.5l-3.56,24.57L2432,1589.55Z"/><path class="cls-15" d="M2540.4,1504.23c-2.89-1-6.47,1-8,4.63s-.44,7.32,2.44,8.35,6.48-1,8-4.63S2543.28,1505.26,2540.4,1504.23Z"/><path class="cls-15" d="M2443.53,1576.59l-22.41,13s14.06-.14,14.29,0l23.71-19.84s-1.72-3.47-7.09-.54A27.34,27.34,0,0,0,2443.53,1576.59Z"/><path class="cls-1" d="M2561.16,1570.74s56,62.18,56,99.44-45.43,103-45.43,103l-22.43-6.57s20.25-81.28,20.25-102.9-41.6-53.32-41.6-53.32"/><path class="cls-18" d="M2567.87,1663.66c0,18.62-16.48,86.67-20.35,102.53,1.13.3,1.6.39,3.32.83,4.76-19.58,20.31-85.06,20.31-103.36,0-22.18-40.52-53.31-42.25-54.62l-2,2.61C2527.32,1612,2567.87,1643.09,2567.87,1663.66Z"/><path class="cls-10" d="M2458.17,1539.44s1.59,24.47-15.58,41.81a6.48,6.48,0,0,1-4.44,1.79c-3.48,0-5.73-1.48-7.52-2.24a7.22,7.22,0,0,1-4.23-3.91,3.09,3.09,0,0,1,.73-3.18c3.55-4.09,14.72-18.25,12.21-32.34C2448,1536,2458.17,1539.44,2458.17,1539.44Z"/><path class="cls-10" d="M2428.69,1579.71a4.73,4.73,0,0,1-2.29-2.82,3.09,3.09,0,0,1,.73-3.18c3.55-4.09,14.72-18.25,12.21-32.34a20.54,20.54,0,0,1,9.23-2.93C2447.17,1553.4,2442.73,1563,2428.69,1579.71Z"/><path class="cls-10" d="M2442.52,1557.49c-1.13,3.33-3.11,5.67-4.42,5.23s-1.46-3.51-.33-6.84,3.12-5.68,4.43-5.23S2443.65,1554.16,2442.52,1557.49Z"/><polygon class="cls-19" points="2442.45 1550.78 2441.08 1550.27 2441.09 1550.99 2441.99 1551.48 2442.45 1550.78"/><polygon class="cls-20" points="2438.42 1562.77 2436.75 1562.22 2438.73 1562.18 2438.42 1562.77"/><path class="cls-1" d="M2441.4,1557.11c-1.13,3.33-3.11,5.67-4.42,5.23s-1.45-3.51-.32-6.84,3.11-5.68,4.42-5.23S2442.53,1553.78,2441.4,1557.11Z"/><path class="cls-10" d="M2466.69,1520.05l2.64.33a9,9,0,0,1,8.05,9.86l-.86,6.92a9,9,0,0,1-10.25,7.57l-2.63-.33Z"/><path class="cls-13" d="M2385.36,1516.81c-2.37,18.9,0,34.76,5.41,35.43s11.62-14.1,14-33-.05-34.75-5.41-35.43S2387.72,1497.92,2385.36,1516.81Z"/><polygon class="cls-14" points="2406.77 1506.69 2398.47 1510.72 2397.09 1521.79 2404.09 1529.95 2408.63 1515.9 2406.77 1506.69"/><path class="cls-10" d="M2404.76,1519.24c2-15.88.59-29.57-3.09-34l0,0c29.23,27.22,66.5,35.21,66.5,35.21l-3,24.15s-50.6-9.25-71.77,6.78l0,0C2398,1548.07,2402.77,1535.13,2404.76,1519.24Z"/><path class="cls-21" d="M2396.74,1516.1c-.39,3.07-.23,5.61.35,5.69s1.36-2.36,1.74-5.43.23-5.62-.35-5.69S2397.12,1513,2396.74,1516.1Z"/><path class="cls-15" d="M2427.61,1571.71c.79.29,3.56,2,12.51,2,6.52,0,9.45-8,10.56-12.36.4-1.54.74-3.71-1.17-4.69l-10.47-1.45Z"/><polygon class="cls-16" points="1689.38 1558.28 1677.36 1585.14 1657.78 1567.5 1671.59 1528.37 1689.38 1558.28"/><path class="cls-15" d="M1696.34,1560c3.29.44,6.4.4,8.22-.76,11.9-13.48,7.82-53.19,7.82-53.19l-13.93-12-21.31,9.94-5.55,21.82c-1.48,7.2.55,19.83,5.48,25.29h0A37.06,37.06,0,0,0,1696.34,1560Z"/><path class="cls-15" d="M1699.54,1702.4a30.8,30.8,0,0,0,14.44,10.29c9.63,3.31,81.3-11.73,81.3-11.73l14.4,1.51a36.62,36.62,0,0,0,22.8-1.18l21.08-8.15-123.66-2.58-47.34-58.79Z"/><path class="cls-14" d="M1657.78,1567.5s-28.57,36.6-35.24,60.66-9.08,90.4-9.08,90.4h60.12s17.27-31.3,30.67-59.69a32.44,32.44,0,0,0,.37-27c-9.81-22.23-24.55-52.82-24.55-52.82Z"/><path class="cls-15" d="M1688.31,2118.92l4.77,12.41a15.9,15.9,0,0,0,6.49,8.24A62.6,62.6,0,0,0,1716,2147c-9.56,8.15-24.77-.37-33.47-6.39a21.29,21.29,0,0,1-8.5-12.32l-2-9.4Z"/><path class="cls-11" d="M1673.06,2125.37s-6.46,5.08-5.28,11.56,2.87,21.64,2.87,21.64h6.64l-.2-14.14c0-.93,14.25,14.14,16.66,14.14h35.17s2.34-9.54-18.31-12.61S1673.06,2125.37,1673.06,2125.37Z"/><path class="cls-15" d="M1619.94,2118.92l4.77,12.41a16,16,0,0,0,6.49,8.24,62.76,62.76,0,0,0,16.42,7.46c-9.55,8.15-24.76-.37-33.46-6.39a21.35,21.35,0,0,1-8.51-12.32l-2-9.4Z"/><path class="cls-11" d="M1604.7,2125.37s-6.47,5.08-5.28,11.56,2.86,21.64,2.86,21.64h6.65l-.21-14.14c0-.93,14.26,14.14,16.67,14.14h35.17s2.33-9.54-18.32-12.61S1604.7,2125.37,1604.7,2125.37Z"/><path class="cls-10" d="M1673.58,1719.61s29.84,44.72,4.3,223c4,67.38,11.5,178.28,11.5,178.28h-16.93s-47-118.12-31.2-177c3.75-58.27-10.69-225.37-10.69-225.37Z"/><path class="cls-1" d="M1613.46,1718.56s-31.23,25.11-31.23,62.42c0,29.26,14.1,89.87,22.19,129.54,2.93,14.41,0,29.28-4.09,43.41-16.52,57.55,3.56,167,3.56,167h16.84s.92-56.27,24-182.43c26.46-144.91,28.88-219.9,28.88-219.9Z"/><polygon class="cls-10" points="1856.94 1693.14 1758.71 1693.14 1758.71 1685.92 1852.58 1685.92 1894.28 1606.63 1900.67 1609.99 1856.94 1693.14"/><path class="cls-15" d="M1630.56,1634.58s31.37,73,46.45,73,98.55-35.7,98.55-35.7l-2.22-12.46-85.23,14.44a374.17,374.17,0,0,1-12.79-43.23c-2.08-9.15-9.16-16.61-18.39-18.35C1636.78,1608.5,1630.56,1634.58,1630.56,1634.58Z"/><path class="cls-13" d="M1672.19,1518.67s9.3,5.62,37.78-12.64c4.37,1.14-2.6-39.9-39.44-27.85-25.8,8.44-24.56,33.41-23.37,47.23,1.28,14.92-6.48,24.77-16.74,35.68-8.61,9.15-8.47,26-14.21,35-7,11.15-14.53,10.5-20.12,21.81-5.86,11.83-6.66,26.3,1.18,36.92,4.45,6,14.84,20.61,31.28,15.42,9.23-2.92,11.72-19,12.12-32.6a41.09,41.09,0,0,1,15.67-30.83c8.87-7.06,18.55-16.73,21.14-26.82C1682.56,1560.24,1672.19,1518.67,1672.19,1518.67Z"/><path class="cls-15" d="M1668.85,1519.46c2.2-1.52,5.68-.59,7.79,2.08s2,6.06-.16,7.58-5.68.59-7.79-2.07S1666.66,1521,1668.85,1519.46Z"/><path class="cls-15" d="M1820,1665.85a4.09,4.09,0,0,0-2.43-4.23l-16-7a17.56,17.56,0,0,0-12.54-.56l-15.89,5.28-2.15.08-1.71,14.79c3.18-1.17,5-1.89,5-1.89l10.06-3.66s21.93,18.6,29.77,1.71c2.35,16.73,7.11,14.87,7.11,14.87Z"/><path class="cls-13" d="M1658.05,1504.29c3.16,11.43,19.4,16.91,36.27,12.25s26-17.33,24.84-29.13c-1.56-15.48-19.39-16.9-36.27-12.24S1654.9,1492.87,1658.05,1504.29Z"/><path class="cls-16" d="M988.84,1918.29c-14.51,103.77,1.37,211.29,1.37,210.35s11.57,0,11.57,0,16-126.14,19.79-168.25,0-44.91,0-44.91S1003.35,1814.51,988.84,1918.29Z"/><polygon class="cls-4" points="985.03 1650.51 949.54 1673.13 934.57 1641.94 980.42 1589.39 985.03 1650.51"/><polygon class="cls-15" points="1172.32 1442.7 1128.87 1556.22 1101.13 1535.58 1163.12 1431.07 1172.32 1442.7"/><path class="cls-15" d="M1174.84,1404.16a17.94,17.94,0,0,0-6.4,11.07l-5.32,15.84,1.69,3,7.5,8.64a11.42,11.42,0,0,1,3-5.93l11.82-13.23s19.39-22.61,1.29-30.28c10.62-21,3-20.46,3-20.46l-9.51,18Z"/><path class="cls-15" d="M1177.56,1408.3s-3.92-3.68-.43-12.45-1.79-8.14-1.79-8.14-14.51,34.15-9.85,38S1177.56,1408.3,1177.56,1408.3Z"/><path class="cls-4" d="M1047.79,1579.56l13,1,44.2-51.52,23.87,27.17a720.47,720.47,0,0,1-53.94,84.16c-1.83,8.7-11.32,96.29-11.32,96.29H987s12.21-64.27-9.36-100S1047.79,1579.56,1047.79,1579.56Z"/><path class="cls-15" d="M1022.67,1918.29c-14.51,103.77,1.37,211.29,1.37,210.35s11.57,0,11.57,0,16-126.14,19.79-168.25,0-44.91,0-44.91S1037.18,1814.51,1022.67,1918.29Z"/><path class="cls-15" d="M1050.58,1499.41l-44.15,15.45,4.36,33c.06.47.18.91.27,1.37.85.16,1.7.31,2.54.52.14,0,.27.08.41.12l.4.08c10.18,2.5,17.4,10.92,20.64,20.66a52,52,0,0,0,19.1-.25c4.32-.89,8.24-2.25,10-4.32C1073.5,1545.67,1050.58,1499.41,1050.58,1499.41Z"/><path class="cls-13" d="M1051.72,1527.16c-4,7.95-4.71,17.33-.9,25.37,6,12.7,5.47,27,1.47,34.78-2.72,5.34-9.85,10.67-16.17,14.6a25,25,0,0,0-11.72,18.9c-1,10.72-2,23.87-11.18,27-26.65,9.17-36.42,8.29-40-13.92a45.14,45.14,0,0,1,2.3-21.75,38.92,38.92,0,0,0-.82-29.16c-2.67-6.09-5-12.79-5-17.41,0-5,4.61-12.11,9.45-18.15a37.31,37.31,0,0,0,7.84-26.74c-.86-9.62.49-21.9,10.24-30.22,18.21-15.54,58.61,8.91,58.61,8.91S1059.72,1511.19,1051.72,1527.16Z"/><path class="cls-15" d="M934.57,1641.94l-17,17.64c-11.33,11.72-14.83,28-1.22,37L972,1740.82l-5.12,9.59a23.36,23.36,0,0,0,2,25.19l5.89,7.71,13-44.72-40.38-50.42a9.67,9.67,0,0,1,2.08-15h0Z"/><path class="cls-11" d="M1063.61,1736.67s11.23,29.12,11.23,58.62c0,16.21-14,138.44-14,138.44h-73c4.94-90.27-22.43-101.34-22.43-140.36,0-27.52,21.56-56.7,21.56-56.7Z"/><path class="cls-13" d="M990.21,2115.06s-6.38,5-5.21,11.41,2.82,21.36,2.82,21.36h6.56l-.2-14c0-.91,14.07,14,16.45,14h34.71s2.31-9.41-18.08-12.44S990.21,2115.06,990.21,2115.06Z"/><path class="cls-11" d="M1027.28,2115.06s-6.38,5-5.21,11.41,2.83,21.36,2.83,21.36h6.55l-.2-14c0-.91,14.07,14,16.45,14h34.71s2.31-9.41-18.07-12.44S1027.28,2115.06,1027.28,2115.06Z"/></svg>